<svg width="18" height="18" viewBox="0 0 18 18" fill="none" xmlns="http://www.w3.org/2000/svg">
<g clip-path="url(#clip0_1_1320)">
<path d="M3.98918 10.876L3.36263 13.215L1.07258 13.2635C0.388195 11.9941 0 10.5418 0 8.99839C0 7.50597 0.362953 6.0986 1.00631 4.85938H1.0068L3.04559 5.23316L3.9387 7.2597C3.75177 7.80466 3.64989 8.38966 3.64989 8.99839C3.64996 9.65905 3.76963 10.292 3.98918 10.876Z" fill="#FBBB00"/>
<path d="M17.8402 7.32031C17.9436 7.86474 17.9975 8.427 17.9975 9.00163C17.9975 9.64597 17.9297 10.2745 17.8006 10.8808C17.3625 12.9438 16.2177 14.7453 14.6319 16.0201L14.6314 16.0197L12.0634 15.8886L11.7 13.6198C12.7523 13.0027 13.5747 12.0369 14.0079 10.8808H9.19531V7.32031H17.8402Z" fill="#518EF8"/>
<path d="M14.6316 16.0193L14.6321 16.0198C13.0898 17.2595 11.1305 18.0012 8.99773 18.0012C5.57031 18.0012 2.59043 16.0855 1.07031 13.2664L3.98691 10.8789C4.74695 12.9074 6.70372 14.3513 8.99773 14.3513C9.98376 14.3513 10.9075 14.0848 11.7002 13.6194L14.6316 16.0193Z" fill="#28B446"/>
<path d="M14.7462 2.07197L11.8306 4.45894C11.0102 3.94615 10.0404 3.64992 9.0015 3.64992C6.65556 3.64992 4.6622 5.16013 3.94023 7.26131L1.0083 4.86099H1.00781C2.50568 1.97307 5.52314 0 9.0015 0C11.1852 0 13.1875 0.777867 14.7462 2.07197Z" fill="#F14336"/>
</g>
<defs>
<clipPath id="clip0_1_1320">
<rect width="18" height="18" fill="white"/>
</clipPath>
</defs>
</svg>
