<svg width="60" height="60" viewBox="0 0 60 60" fill="none" xmlns="http://www.w3.org/2000/svg">
<rect width="60" height="60" rx="30" fill="url(#paint0_linear_1_3477)"/>
<g filter="url(#filter0_d_1_3477)">
<rect x="6.25" y="6.25" width="48" height="48" rx="24" fill="white"/>
<rect x="5.75" y="5.75" width="49" height="49" rx="24.5" stroke="#FDE3E3"/>
<g clip-path="url(#clip0_1_3477)">
<path d="M37.813 30.8859L30.3169 38.3086L22.8208 30.8859C22.3264 30.4048 21.9369 29.8267 21.6769 29.1877C21.417 28.5488 21.2922 27.863 21.3103 27.1735C21.3285 26.4839 21.4893 25.8056 21.7825 25.1813C22.0757 24.5569 22.4951 24 23.0142 23.5457C23.5333 23.0913 24.1408 22.7494 24.7986 22.5413C25.4564 22.3333 26.1501 22.2636 26.8361 22.3368C27.5221 22.4099 28.1855 22.6243 28.7846 22.9664C29.3837 23.3085 29.9054 23.771 30.3169 24.3246C30.7302 23.775 31.2526 23.3166 31.8512 22.9781C32.4499 22.6397 33.112 22.4284 33.7961 22.3575C34.4801 22.2866 35.1715 22.3577 35.8268 22.5662C36.4822 22.7748 37.0874 23.1163 37.6047 23.5695C38.122 24.0226 38.5401 24.5777 38.8329 25.1998C39.1258 25.822 39.287 26.4979 39.3066 27.1852C39.3261 27.8726 39.2036 28.5565 38.9466 29.1943C38.6896 29.8321 38.3037 30.41 37.813 30.8919" stroke="#F17878" stroke-width="2" stroke-linecap="round" stroke-linejoin="round"/>
</g>
</g>
<defs>
<filter id="filter0_d_1_3477" x="4.17587" y="4.71294" width="52.1483" height="52.1483" filterUnits="userSpaceOnUse" color-interpolation-filters="sRGB">
<feFlood flood-opacity="0" result="BackgroundImageFix"/>
<feColorMatrix in="SourceAlpha" type="matrix" values="0 0 0 0 0 0 0 0 0 0 0 0 0 0 0 0 0 0 127 0" result="hardAlpha"/>
<feOffset dy="0.537063"/>
<feGaussianBlur stdDeviation="0.537063"/>
<feComposite in2="hardAlpha" operator="out"/>
<feColorMatrix type="matrix" values="0 0 0 0 0.0392157 0 0 0 0 0.0509804 0 0 0 0 0.0784314 0 0 0 0.03 0"/>
<feBlend mode="normal" in2="BackgroundImageFix" result="effect1_dropShadow_1_3477"/>
<feBlend mode="normal" in="SourceGraphic" in2="effect1_dropShadow_1_3477" result="shape"/>
</filter>
<linearGradient id="paint0_linear_1_3477" x1="30" y1="0" x2="30" y2="60" gradientUnits="userSpaceOnUse">
<stop stop-color="#F17878" stop-opacity="0.1"/>
<stop offset="1" stop-color="#F17878" stop-opacity="0"/>
</linearGradient>
<clipPath id="clip0_1_3477">
<rect width="24" height="24" fill="white" transform="translate(18.25 18.25)"/>
</clipPath>
</defs>
</svg>
