<svg width="364" height="478" viewBox="0 0 364 478" fill="none" xmlns="http://www.w3.org/2000/svg">
<g filter="url(#filter0_dddddd_1_1126)">
<g clip-path="url(#clip0_1_1126)">
<g filter="url(#filter1_d_1_1126)">
<g filter="url(#filter2_bdddddd_1_1126)">
<path d="M343.371 32.416H106.143C102.197 32.416 98.998 35.6161 98.998 39.5636V626.382C98.998 630.329 102.197 633.529 106.143 633.529H343.371C347.318 633.529 350.517 630.329 350.517 626.382V39.5636C350.517 35.6161 347.318 32.416 343.371 32.416Z" fill="white"/>
<path d="M106.143 32.666H343.371C347.179 32.666 350.267 35.7541 350.267 39.5636V626.382C350.267 630.191 347.179 633.279 343.371 633.279H106.143C102.335 633.279 99.248 630.191 99.248 626.382V39.5636C99.248 35.7541 102.335 32.666 106.143 32.666Z" stroke="#EAECF0" stroke-width="0.5"/>
</g>
</g>
<g filter="url(#filter3_ddd_1_1126)">
<path d="M350.517 32.416H98.998V79.5902H350.517V32.416Z" fill="#1B91F0"/>
<path d="M143.171 61.2921C140.707 61.2921 139.13 59.8046 138.949 57.641L140.301 57.5509C140.512 59.1435 141.488 60.03 143.201 60.03C144.689 60.03 145.56 59.444 145.56 58.3472C145.56 57.3555 145.064 56.7545 142.51 56.1235C140.046 55.5075 139.175 54.7712 139.175 53.1786C139.175 51.3906 140.527 50.1435 142.72 50.1435C145.064 50.1435 146.447 51.5859 146.687 53.5392L145.335 53.6293C145.155 52.3372 144.283 51.4056 142.69 51.4056C141.368 51.4056 140.527 52.0968 140.527 53.1185C140.527 54.1252 141.068 54.4858 143.321 55.0417C145.996 55.7028 146.912 56.7245 146.912 58.257C146.912 60.1201 145.35 61.2921 143.171 61.2921ZM151.622 61.232C150.029 61.232 149.008 60.1051 149.008 58.212V53.0884H150.27V57.8664C150.27 59.414 150.811 60.1201 151.952 60.1201C153.215 60.1201 153.981 59.2637 153.981 57.8363V53.0884H155.243V61.0517H154.041V59.7595C153.605 60.7061 152.764 61.232 151.622 61.232ZM157.65 63.3054V53.0884H158.822L158.837 54.3055C159.318 53.3889 160.204 52.9081 161.286 52.9081C163.66 52.9081 164.727 54.8764 164.727 57.0701C164.727 59.2637 163.66 61.232 161.286 61.232C160.249 61.232 159.333 60.7662 158.912 59.9999V63.3054H157.65ZM161.166 60.03C162.548 60.03 163.404 58.9332 163.404 57.0701C163.404 55.207 162.548 54.1101 161.166 54.1101C159.783 54.1101 158.912 55.1168 158.912 57.0701C158.912 59.0233 159.768 60.03 161.166 60.03ZM169.712 61.232C167.458 61.232 166.06 59.5943 166.06 57.0701C166.06 54.5459 167.458 52.9081 169.651 52.9081C171.725 52.9081 173.167 54.4106 173.167 57.0851V57.4607H167.383C167.473 59.1736 168.329 60.03 169.712 60.03C170.748 60.03 171.424 59.5041 171.695 58.6928L173.047 58.7979C172.626 60.2253 171.394 61.232 169.712 61.232ZM171.785 56.3489C171.665 54.8163 170.823 54.1101 169.651 54.1101C168.419 54.1101 167.593 54.8764 167.383 56.3489H171.785ZM175.008 61.0517V53.0884H176.12L176.165 54.5609C176.45 53.5542 177.081 53.0884 178.058 53.0884H178.839V54.2904H178.073C176.871 54.2904 176.27 54.9365 176.27 56.2437V61.0517H175.008ZM180.705 61.0517V50.3839H182.508L185.919 59.6393L189.314 50.3839H191.117V61.0517H189.825V52.7879L186.775 61.0517H185.047L181.997 52.7879V61.0517H180.705ZM196.856 61.232C194.603 61.232 193.205 59.5943 193.205 57.0701C193.205 54.5459 194.603 52.9081 196.796 52.9081C198.87 52.9081 200.312 54.4106 200.312 57.0851V57.4607H194.527C194.618 59.1736 195.474 60.03 196.856 60.03C197.893 60.03 198.569 59.5041 198.84 58.6928L200.192 58.7979C199.771 60.2253 198.539 61.232 196.856 61.232ZM198.93 56.3489C198.81 54.8163 197.968 54.1101 196.796 54.1101C195.564 54.1101 194.738 54.8764 194.527 56.3489H198.93ZM204.686 61.0517C203.244 61.0517 202.567 60.4206 202.567 59.0083V54.2003H201.395V53.0884H202.567V51.2253H203.83V53.0884H205.948V54.2003H203.83V58.9782C203.83 59.6994 204.145 59.9398 204.806 59.9398H205.948V61.0517H204.686ZM207.772 61.0517V53.0884H208.884L208.929 54.5609C209.215 53.5542 209.846 53.0884 210.822 53.0884H211.604V54.2904H210.837C209.635 54.2904 209.034 54.9365 209.034 56.2437V61.0517H207.772ZM213.289 61.0517V53.0884H214.551V61.0517H213.289ZM213.259 51.8414V50.3689H214.581V51.8414H213.259ZM220.113 61.232C217.889 61.232 216.462 59.5943 216.462 57.0701C216.462 54.5459 217.889 52.9081 220.113 52.9081C221.946 52.9081 223.223 53.8998 223.493 55.6727L222.171 55.7629C221.991 54.7111 221.195 54.1101 220.113 54.1101C218.64 54.1101 217.784 55.222 217.784 57.0701C217.784 58.9181 218.64 60.03 220.113 60.03C221.195 60.03 221.991 59.429 222.171 58.227L223.493 58.3171C223.223 60.0901 221.946 61.232 220.113 61.232ZM228.119 61.232C225.986 61.232 224.799 60.1051 224.679 58.5425L226.001 58.4524C226.151 59.414 226.767 60.03 228.119 60.03C229.201 60.03 229.907 59.6994 229.907 58.9181C229.907 58.2871 229.592 58.0166 227.879 57.7161C225.595 57.3105 224.874 56.6043 224.874 55.3422C224.874 53.9298 225.956 52.9081 227.879 52.9081C229.817 52.9081 230.839 54.0801 231.079 55.4624L229.757 55.5525C229.577 54.7111 228.946 54.1101 227.864 54.1101C226.722 54.1101 226.196 54.606 226.196 55.2821C226.196 56.0634 226.707 56.3639 228.119 56.6043C230.553 57.025 231.229 57.656 231.229 58.9181C231.229 60.3906 229.877 61.232 228.119 61.232ZM232.646 61.0517V59.3539H234.344V61.0517H232.646ZM239.408 61.232C237.184 61.232 235.757 59.5943 235.757 57.0701C235.757 54.5459 237.184 52.9081 239.408 52.9081C241.241 52.9081 242.518 53.8998 242.788 55.6727L241.466 55.7629C241.286 54.7111 240.489 54.1101 239.408 54.1101C237.935 54.1101 237.079 55.222 237.079 57.0701C237.079 58.9181 237.935 60.03 239.408 60.03C240.489 60.03 241.286 59.429 241.466 58.227L242.788 58.3171C242.518 60.0901 241.241 61.232 239.408 61.232ZM247.624 61.232C245.416 61.232 243.973 59.6093 243.973 57.0701C243.973 54.5308 245.416 52.9081 247.624 52.9081C249.818 52.9081 251.26 54.5308 251.26 57.0701C251.26 59.6093 249.818 61.232 247.624 61.232ZM247.624 60.03C249.082 60.03 249.938 58.9181 249.938 57.0701C249.938 55.222 249.082 54.1101 247.624 54.1101C246.152 54.1101 245.296 55.222 245.296 57.0701C245.296 58.9181 246.152 60.03 247.624 60.03ZM253.097 61.0517V53.0884H254.254L254.284 54.4858C254.674 53.5091 255.501 52.9081 256.522 52.9081C257.724 52.9081 258.566 53.5091 258.911 54.5759C259.257 53.5091 260.068 52.9081 261.24 52.9081C262.938 52.9081 263.87 54.005 263.87 55.9282V61.0517H262.608V56.1986C262.608 54.7562 262.037 54.02 260.94 54.02C259.828 54.02 259.107 54.8614 259.107 56.2888V61.0517H257.845V56.2888C257.845 54.8764 257.379 54.02 256.207 54.02C255.095 54.02 254.359 54.8764 254.359 56.2888V61.0517H253.097Z" fill="white"/>
<path d="M127.579 55.2885H118.883L122.877 51.293L121.863 50.2852L116.146 56.0032L121.863 61.7213L122.87 60.7135L118.883 56.718H127.579V55.2885Z" fill="white"/>
<path fill-rule="evenodd" clip-rule="evenodd" d="M293.71 52.4292C294.696 52.4292 295.497 51.6251 295.497 50.6423C295.497 49.6595 294.696 48.8554 293.71 48.8554C292.731 48.8554 291.924 49.6595 291.924 50.6423C291.924 51.6251 292.731 52.4292 293.71 52.4292ZM293.71 54.2161C292.731 54.2161 291.924 55.0202 291.924 56.003C291.924 56.9858 292.731 57.7899 293.71 57.7899C294.696 57.7899 295.497 56.9858 295.497 56.003C295.497 55.0202 294.696 54.2161 293.71 54.2161ZM293.71 59.5768C292.731 59.5768 291.924 60.3809 291.924 61.3637C291.924 62.3465 292.731 63.1506 293.71 63.1506C294.696 63.1506 295.497 62.3465 295.497 61.3637C295.497 60.3809 294.696 59.5768 293.71 59.5768Z" fill="white"/>
<path fill-rule="evenodd" clip-rule="evenodd" d="M321.877 51.6723L326.207 56.0045L321.877 60.3367L323.32 61.7805L327.65 57.4483L331.981 61.7805L333.424 60.3367L329.094 56.0045L333.424 51.6723L331.981 50.2285L327.65 54.5607L323.32 50.2285L321.877 51.6723Z" fill="white"/>
</g>
<path d="M123.293 116.757C130.397 116.757 136.155 110.997 136.155 103.891C136.155 96.7856 130.397 91.0254 123.293 91.0254C116.19 91.0254 110.432 96.7856 110.432 103.891C110.432 110.997 116.19 116.757 123.293 116.757Z" fill="#F3F5FB"/>
<path d="M126.741 99.3511H124.698C124.319 99.3511 124.019 99.6899 124.019 100.108V102.378H126.741C126.82 102.377 126.891 102.417 126.934 102.486C126.984 102.555 126.999 102.645 126.97 102.727L126.47 104.392C126.42 104.545 126.291 104.648 126.148 104.649H124.019V110.325C124.019 110.534 123.862 110.704 123.676 110.704H121.975C121.782 110.704 121.632 110.534 121.632 110.325V104.649H120.611C120.425 104.649 120.268 104.48 120.268 104.271V102.757C120.268 102.548 120.425 102.378 120.611 102.378H121.632V100.108C121.632 98.4362 122.854 97.0811 124.355 97.0811H126.741C126.927 97.0811 127.077 97.2505 127.077 97.4592V98.973C127.077 99.1817 126.927 99.3511 126.741 99.3511Z" fill="#207FF8"/>
<path d="M189.747 93.8848H145.445C145.05 93.8848 144.73 94.2048 144.73 94.5995V97.4586C144.73 97.8533 145.05 98.1733 145.445 98.1733H189.747C190.141 98.1733 190.461 97.8533 190.461 97.4586V94.5995C190.461 94.2048 190.141 93.8848 189.747 93.8848Z" fill="#C2C7D2"/>
<path d="M145.679 111.039H146.887V103.491H145.679V111.039ZM157.191 107.528C157.191 106.19 156.405 105.298 155.111 105.298C154.318 105.298 153.625 105.641 153.211 106.178C152.882 105.63 152.289 105.298 151.51 105.298C150.831 105.298 150.288 105.538 149.888 105.95V105.424H148.766V111.039H149.967V107.699C149.967 106.922 150.467 106.396 151.203 106.396C151.917 106.396 152.375 106.922 152.375 107.699V111.039H153.575V107.642C153.575 106.922 154.082 106.396 154.811 106.396C155.533 106.396 155.976 106.91 155.976 107.699V111.039H157.191V107.528ZM164.793 108.226C164.793 106.567 163.629 105.298 162.042 105.298C161.214 105.298 160.499 105.63 160.085 106.213V105.424H158.963V113.097H160.163V110.353C160.613 110.867 161.271 111.165 162.042 111.165C163.629 111.165 164.793 109.907 164.793 108.226ZM163.557 108.237C163.557 109.312 162.807 110.067 161.842 110.067C160.963 110.067 160.156 109.461 160.156 108.226C160.156 107.002 160.963 106.396 161.842 106.396C162.814 106.396 163.557 107.162 163.557 108.237ZM169.495 105.424C169.359 105.389 169.209 105.367 169.038 105.367C168.402 105.367 167.802 105.652 167.402 106.156V105.424H166.287V111.039H167.487V108.043C167.487 107.048 168.18 106.487 169.131 106.487H169.495V105.424ZM175.619 108.626C175.676 108.363 175.712 108.111 175.712 107.871C175.712 106.407 174.604 105.298 173.118 105.298C171.524 105.264 170.181 106.624 170.21 108.237C170.21 109.895 171.517 111.165 173.232 111.165C174.09 111.165 174.833 110.867 175.469 110.261L174.897 109.438C174.397 109.884 173.847 110.101 173.268 110.101C172.303 110.101 171.582 109.541 171.439 108.626H175.619ZM171.46 107.688C171.639 106.853 172.282 106.316 173.068 106.316C173.861 106.316 174.497 106.83 174.511 107.688H171.46ZM176.669 110.078C177.169 110.73 177.97 111.165 178.934 111.165C179.527 111.165 180.02 111.016 180.42 110.719C180.821 110.41 181.014 109.987 181.014 109.449C181.014 108.66 180.542 108.203 179.477 107.757L178.941 107.539C178.391 107.311 178.198 107.162 178.198 106.876C178.198 106.522 178.498 106.339 178.963 106.339C179.456 106.339 179.927 106.544 180.278 106.91L180.935 106.167C180.442 105.584 179.799 105.298 178.991 105.298C177.848 105.298 177.012 105.915 177.012 106.922C177.012 107.711 177.477 108.146 178.477 108.557L179.049 108.797C179.592 109.026 179.835 109.163 179.835 109.495C179.835 109.907 179.449 110.124 178.934 110.124C178.334 110.124 177.848 109.838 177.355 109.323L176.669 110.078ZM181.978 110.078C182.478 110.73 183.279 111.165 184.243 111.165C184.836 111.165 185.329 111.016 185.73 110.719C186.13 110.41 186.323 109.987 186.323 109.449C186.323 108.66 185.851 108.203 184.793 107.757L184.25 107.539C183.707 107.311 183.507 107.162 183.507 106.876C183.507 106.522 183.807 106.339 184.279 106.339C184.765 106.339 185.236 106.544 185.594 106.91L186.244 106.167C185.751 105.584 185.108 105.298 184.3 105.298C183.157 105.298 182.321 105.915 182.321 106.922C182.321 107.711 182.793 108.146 183.786 108.557L184.358 108.797C184.908 109.026 185.144 109.163 185.144 109.495C185.144 109.907 184.758 110.124 184.243 110.124C183.65 110.124 183.157 109.838 182.664 109.323L181.978 110.078ZM187.816 111.039H189.016V105.424H187.816V111.039ZM187.594 103.331C187.594 103.777 187.966 104.12 188.423 104.12C188.866 104.12 189.231 103.777 189.231 103.331C189.231 102.885 188.866 102.53 188.423 102.53C187.966 102.53 187.594 102.885 187.594 103.331ZM190.503 108.226C190.467 109.815 191.853 111.199 193.461 111.165C195.097 111.199 196.483 109.815 196.448 108.226C196.483 106.636 195.097 105.264 193.461 105.298C191.853 105.275 190.467 106.613 190.503 108.226ZM195.212 108.237C195.212 109.255 194.461 110.055 193.461 110.055C192.482 110.055 191.725 109.278 191.725 108.237C191.725 107.196 192.482 106.396 193.475 106.396C194.447 106.396 195.212 107.196 195.212 108.237ZM202.836 107.528C202.836 106.19 202.05 105.298 200.735 105.298C200.035 105.298 199.477 105.527 199.049 105.973V105.424H197.934V111.039H199.134V107.688C199.134 106.922 199.67 106.384 200.413 106.384C201.142 106.384 201.635 106.91 201.635 107.688V111.039H202.836V107.528ZM204.086 110.078C204.593 110.73 205.394 111.165 206.351 111.165C206.944 111.165 207.437 111.016 207.837 110.719C208.238 110.41 208.431 109.987 208.431 109.449C208.431 108.66 207.966 108.203 206.901 107.757L206.366 107.539C205.815 107.311 205.622 107.162 205.622 106.876C205.622 106.522 205.915 106.339 206.387 106.339C206.88 106.339 207.344 106.544 207.702 106.91L208.352 106.167C207.859 105.584 207.223 105.298 206.408 105.298C205.265 105.298 204.429 105.915 204.429 106.922C204.429 107.711 204.901 108.146 205.894 108.557L206.466 108.797C207.016 109.026 207.259 109.163 207.259 109.495C207.259 109.907 206.866 110.124 206.351 110.124C205.758 110.124 205.265 109.838 204.772 109.323L204.086 110.078Z" fill="#2C3039"/>
<path d="M350.517 128.193H98.998V128.908H350.517V128.193Z" fill="#E0E6EE"/>
<path d="M115.455 158.213H116.906L113.962 151.488H113.512L110.561 158.213H112.011L112.383 157.352H115.084L115.455 158.213ZM114.612 156.242H112.854L113.733 154.01L114.612 156.242ZM117.663 156.032C117.663 157.412 118.635 158.333 119.95 158.333C121.243 158.333 122.222 157.412 122.222 156.032V153.26H120.871V156.142C120.871 156.712 120.471 157.092 119.95 157.092C119.399 157.092 119.014 156.712 119.014 156.142V153.26H117.663V156.032ZM126.838 157.082C126.488 157.112 126.28 157.122 126.202 157.122C125.559 157.122 125.28 156.912 125.28 156.352V154.4H126.681V153.26H125.28V152.009H123.93V153.26H123.151V154.4H123.93V156.472C123.93 157.713 124.658 158.333 125.909 158.333C126.209 158.333 126.516 158.293 126.838 158.213V157.082ZM127.588 155.731C127.552 157.142 128.774 158.353 130.225 158.323C131.675 158.353 132.926 157.142 132.897 155.731C132.926 154.32 131.689 153.13 130.239 153.15C128.788 153.12 127.552 154.32 127.588 155.731ZM131.518 155.741C131.518 156.512 130.968 157.082 130.239 157.082C129.489 157.082 128.953 156.512 128.953 155.741C128.953 154.951 129.489 154.38 130.239 154.38C130.968 154.38 131.518 154.971 131.518 155.741ZM140.078 153.26C139.95 153.22 139.814 153.2 139.642 153.2C139.092 153.2 138.613 153.44 138.278 153.85V153.26H137.041V158.213H138.392V155.741C138.392 154.891 138.914 154.45 139.721 154.45H140.078V153.26ZM145.516 156.192C145.573 155.941 145.609 155.691 145.609 155.451C145.609 154.16 144.644 153.15 143.272 153.15C141.843 153.12 140.657 154.31 140.686 155.741C140.657 157.172 141.865 158.363 143.394 158.333C144.123 158.333 144.787 158.083 145.373 157.593L144.816 156.672C144.387 157.002 143.922 157.172 143.437 157.172C142.715 157.172 142.208 156.822 142.043 156.192H145.516ZM142.043 155.241C142.193 154.631 142.658 154.24 143.222 154.24C143.815 154.24 144.287 154.631 144.294 155.241H142.043ZM148.381 152.569C148.381 152.009 148.674 151.799 149.282 151.799C149.403 151.799 149.532 151.809 149.682 151.829V150.698C149.453 150.628 149.203 150.588 148.946 150.588C147.752 150.588 147.031 151.208 147.031 152.449V153.26H146.33V154.4H147.031V158.213H148.381V154.4H149.474V153.26H148.381V152.569ZM153.404 153.26C153.276 153.22 153.133 153.2 152.969 153.2C152.418 153.2 151.932 153.44 151.604 153.85V153.26H150.368V158.213H151.718V155.741C151.718 154.891 152.233 154.45 153.047 154.45H153.404V153.26ZM158.842 156.192C158.899 155.941 158.928 155.691 158.928 155.451C158.928 154.16 157.97 153.15 156.598 153.15C155.169 153.12 153.976 154.31 154.005 155.741C153.976 157.172 155.191 158.363 156.72 158.333C157.449 158.333 158.106 158.083 158.699 157.593L158.142 156.672C157.706 157.002 157.249 157.172 156.756 157.172C156.041 157.172 155.527 156.822 155.369 156.192H158.842ZM155.369 155.241C155.519 154.631 155.977 154.24 156.548 154.24C157.142 154.24 157.606 154.631 157.62 155.241H155.369ZM159.678 157.372C160.128 157.973 160.857 158.333 161.729 158.333C162.286 158.333 162.751 158.193 163.108 157.913C163.479 157.633 163.658 157.242 163.658 156.752C163.658 156.021 163.229 155.631 162.265 155.241L161.786 155.041C161.4 154.881 161.264 154.791 161.264 154.601C161.264 154.37 161.464 154.25 161.8 154.25C162.208 154.25 162.579 154.41 162.908 154.721L163.587 153.89C163.136 153.4 162.551 153.15 161.807 153.15C160.728 153.15 159.985 153.7 159.985 154.631C159.985 155.361 160.428 155.771 161.336 156.142L161.865 156.362C162.236 156.522 162.379 156.602 162.379 156.812C162.379 157.082 162.108 157.222 161.75 157.222C161.257 157.222 160.786 157.002 160.357 156.552L159.678 157.372ZM169.374 155.141C169.374 153.94 168.653 153.15 167.531 153.15C166.981 153.15 166.502 153.35 166.173 153.68V150.708H164.823V158.213H166.173V155.331C166.173 154.761 166.559 154.37 167.109 154.37C167.659 154.37 168.031 154.761 168.031 155.331V158.213H169.374V155.141ZM173.312 157.372C173.762 157.973 174.491 158.333 175.362 158.333C175.927 158.333 176.384 158.193 176.741 157.913C177.113 157.633 177.292 157.242 177.292 156.752C177.292 156.021 176.863 155.631 175.905 155.241L175.427 155.041C175.034 154.881 174.905 154.791 174.905 154.601C174.905 154.37 175.105 154.25 175.434 154.25C175.841 154.25 176.213 154.41 176.541 154.721L177.227 153.89C176.777 153.4 176.184 153.15 175.441 153.15C174.362 153.15 173.626 153.7 173.626 154.631C173.626 155.361 174.062 155.771 174.976 156.142L175.505 156.362C175.877 156.522 176.013 156.602 176.013 156.812C176.013 157.082 175.741 157.222 175.384 157.222C174.891 157.222 174.426 157.002 173.99 156.552L173.312 157.372ZM178.178 155.731C178.156 157.162 179.378 158.363 180.829 158.333C181.786 158.333 182.551 157.863 182.979 157.102L182.036 156.382C181.722 156.832 181.357 157.092 180.85 157.092C180.085 157.092 179.549 156.522 179.549 155.731C179.549 154.961 180.085 154.38 180.85 154.38C181.372 154.38 181.729 154.651 182.036 155.101L182.979 154.37C182.551 153.61 181.8 153.15 180.829 153.15C179.357 153.15 178.178 154.28 178.178 155.731ZM188.674 155.141C188.674 153.94 187.953 153.15 186.831 153.15C186.281 153.15 185.802 153.35 185.473 153.68V150.708H184.123V158.213H185.473V155.331C185.473 154.761 185.859 154.37 186.409 154.37C186.959 154.37 187.331 154.761 187.331 155.331V158.213H188.674V155.141ZM194.669 156.192C194.726 155.941 194.755 155.691 194.755 155.451C194.755 154.16 193.797 153.15 192.426 153.15C190.996 153.12 189.803 154.31 189.832 155.741C189.803 157.172 191.018 158.363 192.547 158.333C193.276 158.333 193.933 158.083 194.526 157.593L193.969 156.672C193.533 157.002 193.076 157.172 192.583 157.172C191.868 157.172 191.354 156.822 191.197 156.192H194.669ZM191.197 155.241C191.347 154.631 191.804 154.24 192.376 154.24C192.969 154.24 193.433 154.631 193.447 155.241H191.197ZM199.557 150.708V153.74C199.192 153.35 198.706 153.15 198.078 153.15C196.691 153.15 195.677 154.25 195.677 155.741C195.677 157.232 196.691 158.333 198.078 158.333C198.756 158.333 199.335 158.073 199.664 157.603V158.213H200.907V150.708H199.557ZM199.578 155.741C199.578 156.632 199.006 157.102 198.328 157.102C197.592 157.102 197.041 156.562 197.041 155.731C197.041 154.921 197.606 154.37 198.328 154.37C199.006 154.37 199.578 154.861 199.578 155.741ZM202.336 156.032C202.336 157.412 203.308 158.333 204.63 158.333C205.916 158.333 206.902 157.412 206.902 156.032V153.26H205.552V156.142C205.552 156.712 205.152 157.092 204.63 157.092C204.08 157.092 203.687 156.712 203.687 156.142V153.26H202.336V156.032ZM208.331 158.213H209.682V150.708H208.331V158.213ZM215.712 156.192C215.777 155.941 215.805 155.691 215.805 155.451C215.805 154.16 214.848 153.15 213.476 153.15C212.047 153.12 210.854 154.31 210.882 155.741C210.854 157.172 212.061 158.363 213.597 158.333C214.326 158.333 214.984 158.083 215.577 157.593L215.012 156.672C214.583 157.002 214.126 157.172 213.633 157.172C212.911 157.172 212.404 156.822 212.247 156.192H215.712ZM212.247 155.241C212.397 154.631 212.854 154.24 213.426 154.24C214.012 154.24 214.483 154.631 214.498 155.241H212.247Z" fill="#2C3039"/>
<mask id="mask0_1_1126" style="mask-type:luminance" maskUnits="userSpaceOnUse" x="310" y="141" width="30" height="29">
<path d="M339.082 141.058H310.5V169.648H339.082V141.058Z" fill="white"/>
</mask>
<g mask="url(#mask0_1_1126)">
<path opacity="0.38" fill-rule="evenodd" clip-rule="evenodd" d="M312.643 155.352C312.643 152.589 314.879 150.349 317.644 150.349H331.935C334.701 150.349 336.937 152.589 336.937 155.352C336.937 158.115 334.701 160.355 331.935 160.355H317.644C314.879 160.355 312.643 158.115 312.643 155.352Z" fill="#1B91F0"/>
<g filter="url(#filter4_ddd_1_1126)">
<path fill-rule="evenodd" clip-rule="evenodd" d="M323.361 155.354C323.361 151.406 326.562 148.206 330.507 148.206C334.451 148.206 337.652 151.406 337.652 155.354C337.652 159.301 334.451 162.501 330.507 162.501C326.562 162.501 323.361 159.301 323.361 155.354Z" fill="#1B91F0"/>
</g>
</g>
<path d="M350.517 181.801H98.998V182.516H350.517V181.801Z" fill="#E0E6EE"/>
<path d="M123.294 223.257C130.397 223.257 136.155 217.496 136.155 210.391C136.155 203.285 130.397 197.525 123.294 197.525C116.19 197.525 110.432 203.285 110.432 210.391C110.432 217.496 116.19 223.257 123.294 223.257Z" fill="#E5EBFA"/>
<path fill-rule="evenodd" clip-rule="evenodd" d="M123.287 205.388C126.117 205.358 128.668 207.124 129.718 209.835C129.725 209.9 129.725 209.968 129.718 210.033C129.718 210.108 129.704 210.183 129.682 210.253C128.632 212.941 126.095 214.696 123.287 214.679C120.479 214.694 117.949 212.933 116.899 210.239C116.878 210.174 116.863 210.104 116.863 210.033C116.863 209.959 116.878 209.885 116.899 209.815C117.949 207.126 120.486 205.371 123.287 205.388ZM121.365 210.033C121.365 211.133 122.229 212.024 123.294 212.024C123.801 212.024 124.295 211.814 124.652 211.441C125.016 211.068 125.216 210.561 125.216 210.033C125.216 208.933 124.359 208.042 123.294 208.042C122.229 208.042 121.365 208.933 121.365 210.033Z" fill="#1B91F0"/>
<path d="M147.057 206.819V201.336H144.906V200.686H149.951V201.336H147.786V206.819H147.057ZM150.001 204.551C149.987 203.907 150.215 203.35 150.687 202.879C151.166 202.408 151.723 202.179 152.366 202.191C153.016 202.179 153.581 202.408 154.045 202.879C154.517 203.35 154.745 203.907 154.738 204.551C154.745 205.19 154.517 205.747 154.038 206.224C153.559 206.695 153.002 206.924 152.359 206.911C151.716 206.924 151.158 206.695 150.687 206.224C150.215 205.747 149.987 205.19 150.001 204.551ZM154.002 204.561C154.002 204.077 153.845 203.671 153.531 203.343C153.216 203.015 152.83 202.851 152.366 202.851C151.902 202.851 151.516 203.015 151.194 203.343C150.887 203.666 150.73 204.071 150.73 204.561C150.73 205.037 150.887 205.44 151.194 205.769C151.516 206.091 151.902 206.252 152.359 206.252C152.816 206.252 153.202 206.087 153.517 205.759C153.838 205.431 154.002 205.032 154.002 204.561ZM158.568 206.215V206.819C158.268 206.886 158.018 206.921 157.818 206.921C157.332 206.921 156.961 206.797 156.696 206.549C156.432 206.301 156.296 205.936 156.296 205.453V202.935H155.531V202.293H156.296V201.058H157.011V202.293H158.425V202.935H157.011V205.406C157.011 205.716 157.089 205.939 157.239 206.075C157.404 206.205 157.647 206.27 157.968 206.27C158.14 206.27 158.34 206.252 158.568 206.215ZM163.134 204.031V206.819H162.47V206.233C162.12 206.691 161.612 206.921 160.941 206.921C160.476 206.921 160.09 206.806 159.797 206.577C159.511 206.342 159.361 206.032 159.361 205.648C159.361 205.264 159.511 204.957 159.812 204.728C160.105 204.498 160.498 204.384 160.991 204.384H162.42V203.994C162.42 203.629 162.32 203.346 162.12 203.148C161.934 202.95 161.662 202.851 161.326 202.851C160.819 202.851 160.376 203.092 160.005 203.576L159.533 203.185C159.933 202.523 160.548 202.191 161.369 202.191C161.912 202.191 162.348 202.352 162.663 202.674C162.977 202.99 163.134 203.443 163.134 204.031ZM162.42 205.081V204.969H161.076C160.426 204.969 160.097 205.183 160.097 205.611C160.097 205.834 160.183 206.01 160.355 206.14C160.54 206.264 160.762 206.326 161.033 206.326C161.412 206.326 161.741 206.205 162.012 205.964C162.284 205.722 162.42 205.428 162.42 205.081ZM164.763 206.819V199.85H165.478V206.819H164.763ZM169.922 206.819V200.686H170.644V206.819H169.922ZM178.933 203.975V206.819H178.218V204.068C178.218 203.696 178.125 203.402 177.932 203.185C177.747 202.962 177.482 202.851 177.154 202.851C176.818 202.851 176.539 202.962 176.317 203.185C176.096 203.408 175.989 203.681 175.989 204.003V206.819H175.274V204.068C175.274 203.703 175.174 203.408 174.974 203.185C174.781 202.962 174.524 202.851 174.195 202.851C173.852 202.851 173.574 202.965 173.359 203.195C173.152 203.418 173.045 203.709 173.045 204.068V206.819H172.33V202.293H172.995V202.767C173.331 202.383 173.781 202.191 174.345 202.191C175.003 202.191 175.467 202.451 175.739 202.972C176.103 202.451 176.618 202.191 177.289 202.191C177.804 202.191 178.204 202.352 178.497 202.674C178.79 202.997 178.933 203.43 178.933 203.975ZM184.528 202.869C184.956 203.322 185.171 203.882 185.171 204.551C185.171 205.22 184.956 205.784 184.52 206.242C184.092 206.695 183.563 206.921 182.934 206.921C182.22 206.921 181.669 206.67 181.269 206.168V208.491H180.555V202.293H181.226V203.018C181.398 202.758 181.634 202.556 181.941 202.414C182.241 202.266 182.577 202.191 182.934 202.191C183.577 202.191 184.113 202.417 184.528 202.869ZM183.97 205.778C184.285 205.455 184.435 205.05 184.435 204.561C184.435 204.071 184.285 203.666 183.97 203.343C183.67 203.015 183.291 202.851 182.834 202.851C182.398 202.851 182.027 203 181.719 203.297C181.412 203.594 181.262 204.012 181.262 204.551C181.262 205.102 181.412 205.527 181.705 205.824C182.012 206.115 182.384 206.261 182.834 206.261C183.291 206.261 183.67 206.1 183.97 205.778ZM188.936 202.293V202.925H188.665C188.272 202.925 187.936 203.046 187.657 203.288C187.386 203.529 187.25 203.852 187.25 204.254V206.819H186.528V202.293H187.2V202.935C187.536 202.482 188 202.256 188.6 202.256C188.722 202.256 188.829 202.268 188.936 202.293ZM193.909 204.774H190.33C190.372 205.22 190.551 205.58 190.858 205.852C191.173 206.124 191.552 206.261 191.995 206.261C192.509 206.261 192.966 206.057 193.381 205.648L193.795 206.131C193.288 206.658 192.688 206.921 191.987 206.921C191.309 206.921 190.737 206.695 190.272 206.242C189.815 205.784 189.587 205.223 189.587 204.561C189.587 203.904 189.808 203.346 190.258 202.888C190.708 202.423 191.259 202.191 191.902 202.191C192.488 202.191 192.981 202.383 193.366 202.767C193.767 203.151 193.967 203.641 193.967 204.235C193.967 204.409 193.945 204.588 193.909 204.774ZM190.358 204.142H193.231C193.224 203.746 193.095 203.43 192.838 203.195C192.588 202.96 192.266 202.842 191.88 202.842C191.509 202.842 191.18 202.962 190.901 203.204C190.623 203.439 190.437 203.752 190.358 204.142ZM194.903 206.038L195.353 205.564C195.589 205.806 195.803 205.982 195.996 206.094C196.196 206.205 196.418 206.261 196.653 206.261C196.911 206.261 197.118 206.205 197.275 206.094C197.439 205.976 197.518 205.818 197.518 205.62C197.518 205.446 197.461 205.313 197.346 205.22C197.232 205.121 197.025 205.013 196.732 204.895L196.296 204.709C195.903 204.548 195.617 204.372 195.439 204.18C195.26 203.987 195.167 203.746 195.167 203.455C195.167 203.071 195.31 202.764 195.596 202.535C195.889 202.306 196.253 202.191 196.696 202.191C197.304 202.191 197.811 202.43 198.204 202.907L197.768 203.353C197.439 203.018 197.068 202.851 196.653 202.851C196.425 202.851 196.246 202.9 196.11 203C195.975 203.099 195.903 203.238 195.903 203.418C195.903 203.56 195.953 203.678 196.053 203.771C196.16 203.857 196.353 203.959 196.639 204.077L197.053 204.254C197.489 204.44 197.797 204.635 197.975 204.839C198.161 205.037 198.254 205.288 198.254 205.592C198.254 206.013 198.097 206.342 197.789 206.577C197.482 206.806 197.111 206.921 196.668 206.921C195.939 206.921 195.353 206.626 194.903 206.038ZM199.226 206.038L199.683 205.564C199.919 205.806 200.133 205.982 200.319 206.094C200.519 206.205 200.741 206.261 200.983 206.261C201.234 206.261 201.441 206.205 201.605 206.094C201.762 205.976 201.848 205.818 201.848 205.62C201.848 205.446 201.784 205.313 201.669 205.22C201.555 205.121 201.355 205.013 201.055 204.895L200.619 204.709C200.226 204.548 199.947 204.372 199.762 204.18C199.583 203.987 199.497 203.746 199.497 203.455C199.497 203.071 199.64 202.764 199.919 202.535C200.212 202.306 200.576 202.191 201.019 202.191C201.634 202.191 202.134 202.43 202.534 202.907L202.098 203.353C201.762 203.018 201.391 202.851 200.983 202.851C200.755 202.851 200.569 202.9 200.433 203C200.297 203.099 200.226 203.238 200.226 203.418C200.226 203.56 200.276 203.678 200.376 203.771C200.483 203.857 200.676 203.959 200.962 204.077L201.384 204.254C201.812 204.44 202.12 204.635 202.298 204.839C202.484 205.037 202.577 205.288 202.577 205.592C202.577 206.013 202.427 206.342 202.112 206.577C201.812 206.806 201.434 206.921 200.991 206.921C200.269 206.921 199.676 206.626 199.226 206.038ZM203.977 206.819V202.293H204.692V206.819H203.977ZM203.799 200.565C203.799 200.423 203.856 200.302 203.963 200.203C204.063 200.098 204.192 200.045 204.342 200.045C204.485 200.045 204.606 200.098 204.713 200.203C204.821 200.302 204.871 200.423 204.871 200.565C204.871 200.714 204.821 200.837 204.713 200.937C204.613 201.036 204.492 201.085 204.342 201.085C204.192 201.085 204.063 201.036 203.963 200.937C203.856 200.837 203.799 200.714 203.799 200.565ZM206.05 204.551C206.035 203.907 206.264 203.35 206.736 202.879C207.207 202.408 207.772 202.179 208.415 202.191C209.065 202.179 209.622 202.408 210.094 202.879C210.565 203.35 210.794 203.907 210.787 204.551C210.794 205.19 210.565 205.747 210.087 206.224C209.608 206.695 209.051 206.924 208.408 206.911C207.764 206.924 207.207 206.695 206.736 206.224C206.264 205.747 206.035 205.19 206.05 204.551ZM210.051 204.561C210.051 204.077 209.894 203.671 209.579 203.343C209.265 203.015 208.879 202.851 208.415 202.851C207.95 202.851 207.557 203.015 207.243 203.343C206.936 203.666 206.778 204.071 206.778 204.561C206.778 205.037 206.936 205.44 207.243 205.769C207.557 206.091 207.95 206.252 208.408 206.252C208.865 206.252 209.251 206.087 209.565 205.759C209.887 205.431 210.051 205.032 210.051 204.561ZM215.889 203.975V206.819H215.174V204.059C215.174 203.699 215.074 203.408 214.867 203.185C214.674 202.962 214.403 202.851 214.052 202.851C213.702 202.851 213.424 202.965 213.195 203.195C212.973 203.418 212.866 203.706 212.866 204.059V206.819H212.152V202.293H212.816V202.777C213.174 202.386 213.638 202.191 214.21 202.191C214.731 202.191 215.139 202.356 215.439 202.684C215.739 203.006 215.889 203.436 215.889 203.975ZM217.089 206.038L217.547 205.564C217.782 205.806 217.997 205.982 218.183 206.094C218.383 206.205 218.604 206.261 218.847 206.261C219.097 206.261 219.304 206.205 219.469 206.094C219.626 205.976 219.712 205.818 219.712 205.62C219.712 205.446 219.647 205.313 219.533 205.22C219.419 205.121 219.219 205.013 218.918 204.895L218.483 204.709C218.09 204.548 217.811 204.372 217.625 204.18C217.447 203.987 217.361 203.746 217.361 203.455C217.361 203.071 217.504 202.764 217.789 202.535C218.075 202.306 218.44 202.191 218.883 202.191C219.497 202.191 219.997 202.43 220.398 202.907L219.962 203.353C219.626 203.018 219.254 202.851 218.847 202.851C218.618 202.851 218.433 202.9 218.297 203C218.161 203.099 218.09 203.238 218.09 203.418C218.09 203.56 218.14 203.678 218.24 203.771C218.347 203.857 218.54 203.959 218.826 204.077L219.247 204.254C219.676 204.44 219.983 204.635 220.162 204.839C220.348 205.037 220.44 205.288 220.44 205.592C220.44 206.013 220.29 206.342 219.976 206.577C219.676 206.806 219.297 206.921 218.854 206.921C218.132 206.921 217.539 206.626 217.089 206.038Z" fill="#7E8B9D"/>
<path d="M146.682 221.126H149.79V221.827H145.203V221.627L147.554 219.125C147.983 218.678 148.283 218.314 148.454 218.034C148.626 217.748 148.711 217.454 148.711 217.154C148.711 216.78 148.597 216.467 148.361 216.213C148.133 215.959 147.825 215.833 147.44 215.833C147.04 215.833 146.725 215.966 146.482 216.233C146.239 216.507 146.125 216.827 146.125 217.194C146.125 217.38 146.139 217.564 146.182 217.744H145.382C145.332 217.578 145.31 217.384 145.31 217.164C145.31 216.617 145.51 216.139 145.911 215.733C146.311 215.319 146.825 215.112 147.44 215.112C148.04 215.112 148.54 215.306 148.933 215.693C149.326 216.073 149.526 216.547 149.526 217.114C149.526 217.427 149.462 217.72 149.333 217.994C149.212 218.254 149.069 218.498 148.89 218.725C148.719 218.951 148.469 219.239 148.14 219.585L146.682 221.126ZM155.278 219.735C155.278 220.382 155.05 220.913 154.585 221.326C154.135 221.733 153.585 221.937 152.934 221.937C152.449 221.937 152.013 221.813 151.62 221.567C151.227 221.313 150.927 220.98 150.698 220.566L151.248 220.176C151.72 220.87 152.277 221.216 152.927 221.216C153.377 221.216 153.749 221.083 154.035 220.816C154.328 220.542 154.471 220.186 154.471 219.745C154.471 219.319 154.321 218.985 154.028 218.745C153.742 218.505 153.327 218.384 152.799 218.384H152.148V218.154L153.878 215.943H151.148V215.222H155.107V215.453L153.356 217.704C153.892 217.758 154.342 217.964 154.721 218.324C155.092 218.678 155.278 219.149 155.278 219.735ZM156.829 223.618L156.957 220.926H157.865L157.458 223.618H156.829ZM163.838 219.715C163.838 220.342 163.617 220.87 163.181 221.296C162.745 221.723 162.216 221.937 161.588 221.937C160.959 221.937 160.43 221.723 159.987 221.296C159.551 220.87 159.337 220.339 159.337 219.705C159.337 219.372 159.401 219.069 159.515 218.795C159.665 218.495 159.858 218.164 160.108 217.804C160.137 217.771 160.158 217.734 160.187 217.694C160.223 217.648 160.244 217.618 160.251 217.604L161.888 215.222H162.817L161.137 217.644C161.302 217.584 161.48 217.554 161.688 217.554C162.273 217.554 162.781 217.764 163.202 218.184C163.624 218.605 163.838 219.115 163.838 219.715ZM163.067 219.715C163.067 219.302 162.924 218.948 162.638 218.655C162.352 218.361 162.002 218.214 161.588 218.214C161.173 218.214 160.823 218.361 160.537 218.655C160.251 218.948 160.108 219.302 160.108 219.715C160.108 220.136 160.251 220.492 160.537 220.786C160.823 221.08 161.173 221.226 161.588 221.226C162.002 221.226 162.352 221.08 162.638 220.786C162.924 220.492 163.067 220.136 163.067 219.715ZM169.297 219.735C169.297 220.382 169.069 220.913 168.604 221.326C168.154 221.733 167.604 221.937 166.954 221.937C166.468 221.937 166.025 221.813 165.632 221.567C165.246 221.313 164.939 220.98 164.717 220.566L165.267 220.176C165.739 220.87 166.296 221.216 166.947 221.216C167.397 221.216 167.768 221.083 168.054 220.816C168.34 220.542 168.483 220.186 168.483 219.745C168.483 219.319 168.34 218.985 168.047 218.745C167.761 218.505 167.347 218.384 166.818 218.384H166.168V218.154L167.897 215.943H165.167V215.222H169.126V215.453L167.375 217.704C167.911 217.758 168.361 217.964 168.733 218.324C169.112 218.678 169.297 219.149 169.297 219.735ZM174.785 219.735C174.785 220.382 174.556 220.913 174.099 221.326C173.642 221.733 173.092 221.937 172.449 221.937C171.956 221.937 171.52 221.813 171.127 221.567C170.741 221.313 170.434 220.98 170.205 220.566L170.755 220.176C171.227 220.87 171.791 221.216 172.434 221.216C172.892 221.216 173.256 221.083 173.549 220.816C173.835 220.542 173.978 220.186 173.978 219.745C173.978 219.319 173.828 218.985 173.535 218.745C173.249 218.505 172.842 218.384 172.306 218.384H171.655V218.154L173.385 215.943H170.655V215.222H174.614V215.453L172.863 217.704C173.399 217.758 173.849 217.964 174.228 218.324C174.599 218.678 174.785 219.149 174.785 219.735Z" fill="#2C3039"/>
<path fill-rule="evenodd" clip-rule="evenodd" d="M129.721 248.987H116.859C116.066 248.987 115.43 249.623 115.43 250.417V258.994C115.43 259.78 116.066 260.423 116.859 260.423H120.431V261.853H126.148V260.423H129.721C130.507 260.423 131.15 259.78 131.15 258.994V250.417C131.15 249.623 130.507 248.987 129.721 248.987ZM122.575 257.564H124.004V255.42H126.148V253.991H124.004V251.846H122.575V253.991H120.431V255.42H122.575V257.564ZM116.859 258.994H129.721V250.417H116.859V258.994Z" fill="#1B91F0"/>
<path d="M145.484 258.28V251.676H146.835V258.28H145.484ZM152.73 251.676H154.08V258.4H153.63L149.807 254.317V258.28H148.457V251.556H148.9L152.73 255.618V251.676ZM155.238 256.939L156.167 256.239C156.631 256.879 157.174 257.199 157.789 257.199C158.082 257.199 158.31 257.136 158.475 257.009C158.646 256.875 158.725 256.695 158.725 256.469C158.725 256.282 158.668 256.139 158.553 256.039C158.446 255.932 158.217 255.802 157.889 255.648L157.174 255.328C156.11 254.854 155.574 254.221 155.574 253.427C155.574 252.866 155.781 252.416 156.195 252.076C156.61 251.729 157.131 251.556 157.767 251.556C158.26 251.556 158.696 251.669 159.068 251.896C159.439 252.116 159.732 252.42 159.947 252.806L159.025 253.517C158.689 253.01 158.267 252.756 157.767 252.756C157.524 252.756 157.331 252.813 157.174 252.926C157.024 253.04 156.946 253.197 156.946 253.397C156.946 253.563 156.996 253.701 157.103 253.807C157.217 253.907 157.424 254.024 157.717 254.157L158.468 254.487C159.032 254.741 159.446 255.018 159.704 255.318C159.968 255.612 160.097 255.978 160.097 256.419C160.097 257.013 159.882 257.493 159.446 257.86C159.011 258.22 158.46 258.4 157.789 258.4C157.231 258.4 156.731 258.27 156.288 258.01C155.845 257.75 155.495 257.393 155.238 256.939ZM161.39 258.28V251.676H165.835V252.896H162.74V254.237H165.013V255.388H162.74V257.059H165.949V258.28H161.39ZM172.801 258.28H171.286L169.572 255.948H168.585V258.28H167.235V251.676H169.714C170.408 251.676 170.979 251.872 171.422 252.266C171.872 252.66 172.094 253.173 172.094 253.807C172.094 254.221 171.994 254.594 171.787 254.928C171.587 255.254 171.301 255.508 170.936 255.688L172.801 258.28ZM168.585 252.866V254.758H169.714C170.029 254.758 170.272 254.671 170.443 254.497C170.622 254.324 170.715 254.094 170.715 253.807C170.715 253.527 170.622 253.3 170.436 253.127C170.25 252.953 170.015 252.866 169.714 252.866H168.585ZM174.973 258.28V252.896H172.866V251.676H178.446V252.896H176.324V258.28H174.973ZM187.878 251.556H188.321V258.28H186.971V254.758L185.306 256.839H184.87L183.205 254.758V258.28H181.854V251.556H182.297L185.084 255.128L187.878 251.556ZM189.943 258.28V251.676H194.388V252.896H191.294V254.237H193.566V255.388H191.294V257.059H194.509V258.28H189.943ZM197.274 258.28V252.896H195.166V251.676H200.747V252.896H198.625V258.28H197.274ZM207.314 258.28H205.799L204.084 255.948H203.098V258.28H201.747V251.676H204.227C204.92 251.676 205.492 251.872 205.935 252.266C206.385 252.66 206.606 253.173 206.606 253.807C206.606 254.221 206.506 254.594 206.299 254.928C206.099 255.254 205.813 255.508 205.449 255.688L207.314 258.28ZM203.098 252.866V254.758H204.227C204.541 254.758 204.784 254.671 204.956 254.497C205.134 254.324 205.227 254.094 205.227 253.807C205.227 253.527 205.134 253.3 204.949 253.127C204.763 252.953 204.527 252.866 204.227 252.866H203.098ZM208.25 258.28V251.676H209.6V258.28H208.25ZM210.843 254.978C210.829 254.031 211.172 253.22 211.872 252.546C212.573 251.866 213.401 251.536 214.359 251.556C214.988 251.556 215.552 251.702 216.06 251.996C216.574 252.282 216.981 252.683 217.274 253.197L216.253 253.917C215.781 253.177 215.145 252.806 214.359 252.806C213.744 252.806 213.237 253.013 212.83 253.427C212.43 253.841 212.23 254.361 212.23 254.988C212.23 255.615 212.43 256.132 212.83 256.539C213.237 256.946 213.744 257.149 214.359 257.149C215.145 257.149 215.781 256.779 216.253 256.039L217.274 256.759C216.989 257.273 216.588 257.676 216.074 257.97C215.559 258.256 214.988 258.4 214.352 258.4C213.387 258.42 212.551 258.093 211.851 257.419C211.158 256.739 210.822 255.925 210.843 254.978Z" fill="#1B91F0"/>
<path d="M350.517 281.152H98.998V281.867H350.517V281.152Z" fill="#E0E6EE"/>
<path d="M111.189 302.594H112.54V295.99H111.189V302.594ZM118.613 299.522C118.613 298.321 117.899 297.531 116.749 297.531C116.163 297.531 115.648 297.741 115.298 298.091V297.641H114.062V302.594H115.412V299.702C115.412 299.132 115.798 298.741 116.348 298.741C116.899 298.741 117.27 299.132 117.27 299.702V302.594H118.613V299.522ZM119.6 301.753C120.05 302.354 120.786 302.714 121.65 302.714C122.215 302.714 122.672 302.574 123.037 302.294C123.401 302.014 123.587 301.623 123.587 301.133C123.587 300.403 123.151 300.012 122.193 299.622L121.715 299.422C121.322 299.262 121.193 299.172 121.193 298.982C121.193 298.751 121.393 298.631 121.722 298.631C122.136 298.631 122.501 298.792 122.836 299.102L123.515 298.271C123.065 297.781 122.472 297.531 121.736 297.531C120.65 297.531 119.914 298.081 119.914 299.012C119.914 299.742 120.35 300.152 121.264 300.523L121.793 300.743C122.165 300.903 122.301 300.983 122.301 301.193C122.301 301.463 122.036 301.603 121.672 301.603C121.186 301.603 120.714 301.383 120.286 300.933L119.6 301.753ZM129.303 300.573C129.36 300.323 129.389 300.072 129.389 299.832C129.389 298.541 128.431 297.531 127.059 297.531C125.63 297.501 124.437 298.691 124.466 300.122C124.437 301.553 125.652 302.744 127.181 302.714C127.91 302.714 128.567 302.464 129.16 301.974L128.603 301.053C128.167 301.383 127.71 301.553 127.217 301.553C126.502 301.553 125.988 301.203 125.83 300.573H129.303ZM125.83 299.622C125.98 299.012 126.438 298.621 127.009 298.621C127.602 298.621 128.067 299.012 128.081 299.622H125.83ZM133.626 297.641C133.497 297.601 133.354 297.581 133.19 297.581C132.64 297.581 132.154 297.821 131.825 298.231V297.641H130.589V302.594H131.94V300.122C131.94 299.272 132.454 298.832 133.269 298.832H133.626V297.641ZM137.792 301.463C137.442 301.493 137.227 301.503 137.149 301.503C136.506 301.503 136.227 301.293 136.227 300.733V298.782H137.627V297.641H136.227V296.39H134.876V297.641H134.098V298.782H134.876V300.853C134.876 302.094 135.605 302.714 136.856 302.714C137.156 302.714 137.47 302.674 137.792 302.594V301.463ZM141.486 301.253C142 302.144 142.922 302.714 144.037 302.714C145.359 302.714 146.352 301.944 146.352 300.733C146.352 299.842 145.83 299.292 144.723 298.802L143.973 298.471C143.408 298.221 143.201 298.061 143.201 297.711C143.201 297.301 143.551 297.07 144.023 297.07C144.523 297.07 144.937 297.321 145.28 297.831L146.202 297.12C145.788 296.36 145.03 295.87 144.023 295.87C142.772 295.87 141.829 296.61 141.829 297.741C141.829 298.621 142.422 299.192 143.43 299.642L144.137 299.962C144.773 300.252 144.98 300.393 144.98 300.783C144.98 301.233 144.63 301.513 144.037 301.513C143.322 301.513 142.851 301.143 142.422 300.553L141.486 301.253ZM152.14 300.573C152.204 300.323 152.233 300.072 152.233 299.832C152.233 298.541 151.268 297.531 149.903 297.531C148.467 297.501 147.281 298.691 147.309 300.122C147.281 301.553 148.489 302.744 150.018 302.714C150.754 302.714 151.411 302.464 152.004 301.974L151.44 301.053C151.011 301.383 150.553 301.553 150.06 301.553C149.339 301.553 148.831 301.203 148.667 300.573H152.14ZM148.667 299.622C148.817 299.012 149.282 298.621 149.853 298.621C150.439 298.621 150.911 299.012 150.918 299.622H148.667ZM156.613 301.463C156.263 301.493 156.048 301.503 155.97 301.503C155.327 301.503 155.048 301.293 155.048 300.733V298.782H156.448V297.641H155.048V296.39H153.698V297.641H152.919V298.782H153.698V300.853C153.698 302.094 154.426 302.714 155.677 302.714C155.977 302.714 156.291 302.674 156.613 302.594V301.463ZM160.614 301.463C160.264 301.493 160.05 301.503 159.971 301.503C159.328 301.503 159.049 301.293 159.049 300.733V298.782H160.45V297.641H159.049V296.39H157.699V297.641H156.92V298.782H157.699V300.853C157.699 302.094 158.428 302.714 159.678 302.714C159.978 302.714 160.293 302.674 160.614 302.594V301.463ZM161.736 302.594H163.087V297.641H161.736V302.594ZM161.543 295.84C161.543 296.31 161.922 296.67 162.408 296.67C162.886 296.67 163.272 296.31 163.272 295.84C163.272 295.359 162.886 294.999 162.408 294.999C161.922 294.999 161.543 295.359 161.543 295.84ZM169.117 299.522C169.117 298.321 168.403 297.531 167.252 297.531C166.666 297.531 166.152 297.741 165.802 298.091V297.641H164.566V302.594H165.916V299.702C165.916 299.132 166.302 298.741 166.852 298.741C167.402 298.741 167.774 299.132 167.774 299.702V302.594H169.117V299.522ZM174.291 297.641V298.261C173.94 297.791 173.383 297.531 172.669 297.531C171.318 297.531 170.296 298.511 170.296 299.982C170.296 301.433 171.297 302.444 172.669 302.444C173.297 302.444 173.819 302.244 174.183 301.854V302.124C174.183 302.894 173.662 303.295 172.861 303.295C172.261 303.295 171.797 303.064 171.247 302.654L170.539 303.595C171.232 304.205 172.04 304.515 172.969 304.515C174.519 304.515 175.534 303.655 175.534 302.044V297.641H174.291ZM174.198 299.962C174.198 300.813 173.633 301.303 172.947 301.303C172.233 301.303 171.668 300.773 171.668 299.972C171.668 299.172 172.218 298.681 172.947 298.681C173.64 298.681 174.198 299.112 174.198 299.962ZM176.563 301.753C177.013 302.354 177.742 302.714 178.614 302.714C179.171 302.714 179.635 302.574 179.993 302.294C180.364 302.014 180.543 301.623 180.543 301.133C180.543 300.403 180.114 300.012 179.157 299.622L178.671 299.422C178.285 299.262 178.156 299.172 178.156 298.982C178.156 298.751 178.356 298.631 178.685 298.631C179.092 298.631 179.464 298.792 179.793 299.102L180.471 298.271C180.021 297.781 179.435 297.531 178.692 297.531C177.613 297.531 176.87 298.081 176.87 299.012C176.87 299.742 177.313 300.152 178.221 300.523L178.756 300.743C179.121 300.903 179.264 300.983 179.264 301.193C179.264 301.463 178.992 301.603 178.635 301.603C178.142 301.603 177.67 301.383 177.242 300.933L176.563 301.753Z" fill="#2C3039"/>
<path d="M224.756 341.907C229.492 341.907 233.331 338.067 233.331 333.33C233.331 328.593 229.492 324.753 224.756 324.753C220.021 324.753 216.182 328.593 216.182 333.33C216.182 338.067 220.021 341.907 224.756 341.907Z" fill="black" fill-opacity="0.12"/>
<path d="M221.81 331.36L221.182 331.989L224.754 335.563L228.327 331.989L227.698 331.36L224.754 334.299" fill="#5F6368"/>
</g>
<rect x="99.25" y="32.665" width="251.019" height="600.613" rx="8.76501" stroke="#CFD5DE" stroke-width="0.5"/>
</g>
<defs>
<filter id="filter0_dddddd_1_1126" x="0" y="0.415039" width="449.519" height="799.113" filterUnits="userSpaceOnUse" color-interpolation-filters="sRGB">
<feFlood flood-opacity="0" result="BackgroundImageFix"/>
<feColorMatrix in="SourceAlpha" type="matrix" values="0 0 0 0 0 0 0 0 0 0 0 0 0 0 0 0 0 0 127 0" result="hardAlpha"/>
<feOffset dy="1.85406"/>
<feGaussianBlur stdDeviation="1.36979"/>
<feColorMatrix type="matrix" values="0 0 0 0 0 0 0 0 0 0 0 0 0 0 0 0 0 0 0.0140573 0"/>
<feBlend mode="normal" in2="BackgroundImageFix" result="effect1_dropShadow_1_1126"/>
<feColorMatrix in="SourceAlpha" type="matrix" values="0 0 0 0 0 0 0 0 0 0 0 0 0 0 0 0 0 0 127 0" result="hardAlpha"/>
<feOffset dy="4.45557"/>
<feGaussianBlur stdDeviation="3.2918"/>
<feColorMatrix type="matrix" values="0 0 0 0 0 0 0 0 0 0 0 0 0 0 0 0 0 0 0.0201946 0"/>
<feBlend mode="normal" in2="effect1_dropShadow_1_1126" result="effect2_dropShadow_1_1126"/>
<feColorMatrix in="SourceAlpha" type="matrix" values="0 0 0 0 0 0 0 0 0 0 0 0 0 0 0 0 0 0 127 0" result="hardAlpha"/>
<feOffset dy="8.38944"/>
<feGaussianBlur stdDeviation="6.19817"/>
<feColorMatrix type="matrix" values="0 0 0 0 0 0 0 0 0 0 0 0 0 0 0 0 0 0 0.025 0"/>
<feBlend mode="normal" in2="effect2_dropShadow_1_1126" result="effect3_dropShadow_1_1126"/>
<feColorMatrix in="SourceAlpha" type="matrix" values="0 0 0 0 0 0 0 0 0 0 0 0 0 0 0 0 0 0 127 0" result="hardAlpha"/>
<feOffset dy="14.9653"/>
<feGaussianBlur stdDeviation="11.0565"/>
<feColorMatrix type="matrix" values="0 0 0 0 0 0 0 0 0 0 0 0 0 0 0 0 0 0 0.0298054 0"/>
<feBlend mode="normal" in2="effect3_dropShadow_1_1126" result="effect4_dropShadow_1_1126"/>
<feColorMatrix in="SourceAlpha" type="matrix" values="0 0 0 0 0 0 0 0 0 0 0 0 0 0 0 0 0 0 127 0" result="hardAlpha"/>
<feOffset dy="27.991"/>
<feGaussianBlur stdDeviation="20.6799"/>
<feColorMatrix type="matrix" values="0 0 0 0 0 0 0 0 0 0 0 0 0 0 0 0 0 0 0.0359427 0"/>
<feBlend mode="normal" in2="effect4_dropShadow_1_1126" result="effect5_dropShadow_1_1126"/>
<feColorMatrix in="SourceAlpha" type="matrix" values="0 0 0 0 0 0 0 0 0 0 0 0 0 0 0 0 0 0 127 0" result="hardAlpha"/>
<feOffset dy="67"/>
<feGaussianBlur stdDeviation="49.5"/>
<feColorMatrix type="matrix" values="0 0 0 0 0 0 0 0 0 0 0 0 0 0 0 0 0 0 0.05 0"/>
<feBlend mode="normal" in2="effect5_dropShadow_1_1126" result="effect6_dropShadow_1_1126"/>
<feBlend mode="normal" in="SourceGraphic" in2="effect6_dropShadow_1_1126" result="shape"/>
</filter>
<filter id="filter1_d_1_1126" x="88.7903" y="25.2706" width="267.851" height="617.446" filterUnits="userSpaceOnUse" color-interpolation-filters="sRGB">
<feFlood flood-opacity="0" result="BackgroundImageFix"/>
<feColorMatrix in="SourceAlpha" type="matrix" values="0 0 0 0 0 0 0 0 0 0 0 0 0 0 0 0 0 0 127 0" result="hardAlpha"/>
<feOffset dx="-2.04155" dy="1.02077"/>
<feGaussianBlur stdDeviation="4.0831"/>
<feColorMatrix type="matrix" values="0 0 0 0 0 0 0 0 0 0 0 0 0 0 0 0 0 0 0.12 0"/>
<feBlend mode="normal" in2="BackgroundImageFix" result="effect1_dropShadow_1_1126"/>
<feBlend mode="normal" in="SourceGraphic" in2="effect1_dropShadow_1_1126" result="shape"/>
</filter>
<filter id="filter2_bdddddd_1_1126" x="-40.002" y="25.416" width="529.519" height="879.113" filterUnits="userSpaceOnUse" color-interpolation-filters="sRGB">
<feFlood flood-opacity="0" result="BackgroundImageFix"/>
<feGaussianBlur in="BackgroundImageFix" stdDeviation="1"/>
<feComposite in2="SourceAlpha" operator="in" result="effect1_backgroundBlur_1_1126"/>
<feColorMatrix in="SourceAlpha" type="matrix" values="0 0 0 0 0 0 0 0 0 0 0 0 0 0 0 0 0 0 127 0" result="hardAlpha"/>
<feOffset dy="132"/>
<feGaussianBlur stdDeviation="69.5"/>
<feComposite in2="hardAlpha" operator="out"/>
<feColorMatrix type="matrix" values="0 0 0 0 0.0313726 0 0 0 0 0.0823529 0 0 0 0 0.294118 0 0 0 0.04 0"/>
<feBlend mode="normal" in2="effect1_backgroundBlur_1_1126" result="effect2_dropShadow_1_1126"/>
<feColorMatrix in="SourceAlpha" type="matrix" values="0 0 0 0 0 0 0 0 0 0 0 0 0 0 0 0 0 0 127 0" result="hardAlpha"/>
<feOffset dy="55.1464"/>
<feGaussianBlur stdDeviation="29.0354"/>
<feComposite in2="hardAlpha" operator="out"/>
<feColorMatrix type="matrix" values="0 0 0 0 0.0313726 0 0 0 0 0.0823529 0 0 0 0 0.294118 0 0 0 0.027 0"/>
<feBlend mode="normal" in2="effect2_dropShadow_1_1126" result="effect3_dropShadow_1_1126"/>
<feColorMatrix in="SourceAlpha" type="matrix" values="0 0 0 0 0 0 0 0 0 0 0 0 0 0 0 0 0 0 127 0" result="hardAlpha"/>
<feOffset dy="29.4839"/>
<feGaussianBlur stdDeviation="15.5238"/>
<feComposite in2="hardAlpha" operator="out"/>
<feColorMatrix type="matrix" values="0 0 0 0 0.0313726 0 0 0 0 0.0823529 0 0 0 0 0.294118 0 0 0 0.024 0"/>
<feBlend mode="normal" in2="effect3_dropShadow_1_1126" result="effect4_dropShadow_1_1126"/>
<feColorMatrix in="SourceAlpha" type="matrix" values="0 0 0 0 0 0 0 0 0 0 0 0 0 0 0 0 0 0 127 0" result="hardAlpha"/>
<feOffset dy="16.5284"/>
<feGaussianBlur stdDeviation="8.7025"/>
<feComposite in2="hardAlpha" operator="out"/>
<feColorMatrix type="matrix" values="0 0 0 0 0.0313726 0 0 0 0 0.0823529 0 0 0 0 0.294118 0 0 0 0.02 0"/>
<feBlend mode="normal" in2="effect4_dropShadow_1_1126" result="effect5_dropShadow_1_1126"/>
<feColorMatrix in="SourceAlpha" type="matrix" values="0 0 0 0 0 0 0 0 0 0 0 0 0 0 0 0 0 0 127 0" result="hardAlpha"/>
<feOffset dy="8.77813"/>
<feGaussianBlur stdDeviation="4.62182"/>
<feComposite in2="hardAlpha" operator="out"/>
<feColorMatrix type="matrix" values="0 0 0 0 0.0313726 0 0 0 0 0.0823529 0 0 0 0 0.294118 0 0 0 0.016 0"/>
<feBlend mode="normal" in2="effect5_dropShadow_1_1126" result="effect6_dropShadow_1_1126"/>
<feColorMatrix in="SourceAlpha" type="matrix" values="0 0 0 0 0 0 0 0 0 0 0 0 0 0 0 0 0 0 127 0" result="hardAlpha"/>
<feOffset dy="3.65278"/>
<feGaussianBlur stdDeviation="1.92324"/>
<feComposite in2="hardAlpha" operator="out"/>
<feColorMatrix type="matrix" values="0 0 0 0 0.0313726 0 0 0 0 0.0823529 0 0 0 0 0.294118 0 0 0 0.01 0"/>
<feBlend mode="normal" in2="effect6_dropShadow_1_1126" result="effect7_dropShadow_1_1126"/>
<feBlend mode="normal" in="SourceGraphic" in2="effect7_dropShadow_1_1126" result="shape"/>
</filter>
<filter id="filter3_ddd_1_1126" x="95.9357" y="30.3745" width="257.643" height="53.2988" filterUnits="userSpaceOnUse" color-interpolation-filters="sRGB">
<feFlood flood-opacity="0" result="BackgroundImageFix"/>
<feColorMatrix in="SourceAlpha" type="matrix" values="0 0 0 0 0 0 0 0 0 0 0 0 0 0 0 0 0 0 127 0" result="hardAlpha"/>
<feOffset dy="1.02077"/>
<feGaussianBlur stdDeviation="1.53116"/>
<feColorMatrix type="matrix" values="0 0 0 0 0 0 0 0 0 0 0 0 0 0 0 0 0 0 0.2 0"/>
<feBlend mode="normal" in2="BackgroundImageFix" result="effect1_dropShadow_1_1126"/>
<feColorMatrix in="SourceAlpha" type="matrix" values="0 0 0 0 0 0 0 0 0 0 0 0 0 0 0 0 0 0 127 0" result="hardAlpha"/>
<feOffset dy="2.04155"/>
<feGaussianBlur stdDeviation="1.02077"/>
<feColorMatrix type="matrix" values="0 0 0 0 0 0 0 0 0 0 0 0 0 0 0 0 0 0 0.12 0"/>
<feBlend mode="normal" in2="effect1_dropShadow_1_1126" result="effect2_dropShadow_1_1126"/>
<feColorMatrix in="SourceAlpha" type="matrix" values="0 0 0 0 0 0 0 0 0 0 0 0 0 0 0 0 0 0 127 0" result="hardAlpha"/>
<feOffset/>
<feGaussianBlur stdDeviation="1.02077"/>
<feColorMatrix type="matrix" values="0 0 0 0 0 0 0 0 0 0 0 0 0 0 0 0 0 0 0.14 0"/>
<feBlend mode="normal" in2="effect2_dropShadow_1_1126" result="effect3_dropShadow_1_1126"/>
<feBlend mode="normal" in="SourceGraphic" in2="effect3_dropShadow_1_1126" result="shape"/>
</filter>
<filter id="filter4_ddd_1_1126" x="320.299" y="146.165" width="20.4154" height="20.4198" filterUnits="userSpaceOnUse" color-interpolation-filters="sRGB">
<feFlood flood-opacity="0" result="BackgroundImageFix"/>
<feColorMatrix in="SourceAlpha" type="matrix" values="0 0 0 0 0 0 0 0 0 0 0 0 0 0 0 0 0 0 127 0" result="hardAlpha"/>
<feOffset dy="1.02077"/>
<feGaussianBlur stdDeviation="1.53116"/>
<feColorMatrix type="matrix" values="0 0 0 0 0 0 0 0 0 0 0 0 0 0 0 0 0 0 0.2 0"/>
<feBlend mode="normal" in2="BackgroundImageFix" result="effect1_dropShadow_1_1126"/>
<feColorMatrix in="SourceAlpha" type="matrix" values="0 0 0 0 0 0 0 0 0 0 0 0 0 0 0 0 0 0 127 0" result="hardAlpha"/>
<feOffset dy="2.04155"/>
<feGaussianBlur stdDeviation="1.02077"/>
<feColorMatrix type="matrix" values="0 0 0 0 0 0 0 0 0 0 0 0 0 0 0 0 0 0 0.12 0"/>
<feBlend mode="normal" in2="effect1_dropShadow_1_1126" result="effect2_dropShadow_1_1126"/>
<feColorMatrix in="SourceAlpha" type="matrix" values="0 0 0 0 0 0 0 0 0 0 0 0 0 0 0 0 0 0 127 0" result="hardAlpha"/>
<feOffset/>
<feGaussianBlur stdDeviation="1.02077"/>
<feColorMatrix type="matrix" values="0 0 0 0 0 0 0 0 0 0 0 0 0 0 0 0 0 0 0.14 0"/>
<feBlend mode="normal" in2="effect2_dropShadow_1_1126" result="effect3_dropShadow_1_1126"/>
<feBlend mode="normal" in="SourceGraphic" in2="effect3_dropShadow_1_1126" result="shape"/>
</filter>
<clipPath id="clip0_1_1126">
<rect x="99" y="32.415" width="251.519" height="601.113" rx="9.01501" fill="white"/>
</clipPath>
</defs>
</svg>
