<svg width="78" height="29" viewBox="0 0 78 29" fill="none" xmlns="http://www.w3.org/2000/svg">
<g filter="url(#filter0_d_1_1306)">
<rect x="5" y="3" width="20" height="20" rx="10" fill="url(#paint0_linear_1_1306)" shape-rendering="crispEdges"/>
<rect x="5.20721" y="3.20721" width="19.5856" height="19.5856" rx="9.79279" stroke="#E3E8EF" stroke-width="0.414414" shape-rendering="crispEdges"/>
<g clip-path="url(#clip0_1_1306)">
<path d="M15.2162 7.77686C12.2162 7.77686 9.77704 10.216 9.77704 13.216C9.77704 16.2161 12.2162 18.6552 15.2162 18.6552C18.2163 18.6552 20.6554 16.2161 20.6554 13.216C20.6554 10.216 18.2163 7.77686 15.2162 7.77686Z" fill="#FDDD4C"/>
<path d="M12.8342 14.6347C12.7152 14.4546 13.0144 14.1821 12.8927 13.9533C12.8226 13.8213 12.7079 13.7391 12.5703 13.7218C12.4381 13.7052 12.302 13.7536 12.2152 13.8481C12.0782 13.9972 12.0569 14.2001 12.0834 14.2719C12.0931 14.2982 12.1084 14.3054 12.1193 14.307C12.1939 14.3168 12.2359 14.1253 12.2616 14.0854C12.3329 13.9755 12.4946 13.9422 12.6063 14.0145C12.818 14.1514 12.6344 14.3728 12.6503 14.5598C12.6657 14.7418 12.7791 14.815 12.8809 14.8227C12.98 14.8265 13.0493 14.7714 13.0668 14.7312C13.1087 14.6353 12.932 14.7828 12.8342 14.6347Z" fill="black"/>
<path d="M17.2589 12.9818C17.2034 12.9741 17.1426 12.9743 17.0795 12.9818C17.0315 12.9213 16.9886 12.8233 16.9643 12.709C16.9212 12.5055 16.9257 12.3582 17.0461 12.339C17.1664 12.3199 17.2246 12.443 17.2677 12.6464C17.2967 12.7832 17.2911 12.9088 17.2589 12.9818Z" fill="black"/>
<path d="M15.9406 13.1028C15.9454 13.1489 15.9471 13.1955 15.9457 13.2384C16.0622 13.2453 16.1447 13.3006 16.1666 13.3357C16.1779 13.3538 16.1734 13.3656 16.1698 13.371C16.1577 13.3898 16.1319 13.3869 16.0778 13.3808C16.0305 13.3755 15.9796 13.3709 15.9267 13.3733C15.8979 13.4616 15.8125 13.4699 15.7525 13.4045C15.7106 13.4173 15.6283 13.4699 15.6038 13.4128C15.6036 13.3844 15.6332 13.3432 15.6869 13.3068C15.6503 13.237 15.6257 13.1621 15.6112 13.0847C15.5351 13.0984 15.4667 13.1197 15.413 13.1364C15.3878 13.1443 15.2882 13.1893 15.2765 13.1385C15.2687 13.1035 15.3233 13.0457 15.3809 13.004C15.4454 12.9583 15.5169 12.9257 15.591 12.907C15.5894 12.7966 15.6175 12.7197 15.6977 12.7069C15.7971 12.6911 15.8587 12.7676 15.9013 12.9093C16.0214 12.9427 16.1414 13.0255 16.1944 13.111C16.215 13.1442 16.219 13.1698 16.2056 13.1833C16.1723 13.2178 15.9879 13.1178 15.9406 13.1028Z" fill="black"/>
<path d="M16.7305 13.5987C16.8067 13.6357 16.8905 13.6211 16.9179 13.5663C16.9453 13.5114 16.9056 13.437 16.8294 13.4001C16.7532 13.3632 16.6694 13.3777 16.642 13.4326C16.6147 13.4874 16.6543 13.5618 16.7305 13.5987Z" fill="black"/>
<path d="M17.1056 13.3262C17.107 13.2423 17.1584 13.1753 17.2203 13.1763C17.2821 13.1775 17.3311 13.2462 17.3297 13.33C17.3283 13.4138 17.2769 13.4808 17.2151 13.4798C17.1532 13.4787 17.1042 13.41 17.1056 13.3262Z" fill="black"/>
<path fill-rule="evenodd" clip-rule="evenodd" d="M18.7822 14.3541C18.7817 14.3524 18.7834 14.3584 18.7822 14.3541C18.9064 14.3541 19.1013 14.495 19.1013 14.8354C19.1013 15.174 18.959 15.5576 18.9254 15.6427C18.4126 16.8558 17.1888 17.531 15.7309 17.4883C14.3718 17.4484 13.2127 16.7405 12.7055 15.5865C12.3988 15.5868 12.0826 15.4537 11.8422 15.2434C11.5888 15.0219 11.4326 14.7352 11.4021 14.4362C11.3784 14.2034 11.4073 13.9868 11.4813 13.7979L11.1964 13.5596C9.89271 12.4731 13.9702 7.99942 15.2743 9.12219C15.2808 9.12783 15.7179 9.55109 15.719 9.55212C16.3478 9.28859 18.0325 8.78684 18.0344 9.95487C18.0351 10.3427 17.7847 10.7951 17.3834 11.2055C17.8471 11.63 17.7249 12.233 17.7987 12.7862L17.9598 12.8303C18.2668 12.9153 18.4852 13.0286 18.592 13.1394C18.6989 13.25 18.7519 13.3572 18.7711 13.4828C18.7891 13.5842 18.7867 13.7632 18.6513 13.9634C18.7 14.0925 18.7445 14.2212 18.7822 14.3541ZM12.6825 15.2718C12.728 15.2728 12.7732 15.2699 12.8175 15.2624C13.294 15.1822 13.4186 14.6714 13.3402 14.1699C13.2515 13.6035 12.8634 13.4039 12.6 13.3897C12.5268 13.3859 12.4587 13.3924 12.4026 13.4035C11.9324 13.497 11.6669 13.8919 11.7192 14.4047C11.7665 14.8689 12.2421 15.2602 12.6825 15.2718ZM11.6176 13.5427C11.7753 13.3165 12.0332 13.1529 12.3259 13.0967C12.6984 12.1096 13.3205 11.2002 14.1437 10.5744C14.7547 10.0713 15.4137 9.71042 15.4137 9.71042C15.4137 9.71042 15.0588 9.30425 14.9516 9.27433C14.2923 9.0986 12.8685 10.0679 11.9593 11.3486C11.5914 11.8667 11.0648 12.7844 11.3166 13.2563C11.3476 13.3148 11.5234 13.4651 11.6176 13.5427ZM16.9628 15.0451C16.9638 15.0557 16.9572 15.0666 16.9477 15.0706C16.9477 15.0706 16.4179 15.3138 15.5765 15.0569C15.6067 15.3091 15.9126 15.4047 16.1263 15.4393C17.169 15.6164 18.1438 15.0278 18.3633 14.8796C18.4009 14.8542 18.3628 14.9196 18.356 14.9292C18.0874 15.2713 17.3652 15.6673 16.4257 15.6672C16.016 15.667 15.6064 15.5246 15.4561 15.3056C15.2228 14.966 15.4445 14.47 15.8333 14.5217C16.4905 14.5949 17.1642 14.5399 17.7725 14.2612C18.303 14.0181 18.5034 13.7507 18.4732 13.5341C18.4265 13.1985 17.9288 13.146 17.6773 13.0644C17.5678 13.0286 17.5138 13.0001 17.5015 12.7968C17.4962 12.7081 17.4806 12.3985 17.4749 12.2705C17.4648 12.0464 17.4374 11.7399 17.2449 11.6134C17.1946 11.5804 17.1389 11.5645 17.0802 11.5614C17.0334 11.5592 17.0056 11.5656 16.9907 11.5691C16.9873 11.5698 16.9846 11.5705 16.9825 11.5708C16.8785 11.5883 16.8148 11.6409 16.7397 11.7029C16.7353 11.7065 16.731 11.7101 16.7265 11.7137C16.4863 11.9113 16.2835 11.9436 16.0579 11.9341C15.9876 11.9311 15.9152 11.9241 15.8388 11.9167C15.7685 11.9099 15.6949 11.9028 15.6165 11.8982L15.5207 11.8927C15.1428 11.8736 14.7376 12.1956 14.6702 12.6531C14.5949 13.1637 14.8803 13.4764 15.066 13.6798C15.1118 13.7301 15.1516 13.7737 15.1783 13.8119C15.1955 13.835 15.2154 13.8675 15.2154 13.8984C15.2154 13.9353 15.1911 13.9646 15.1674 13.9895C14.7819 14.3808 14.6586 15.0025 14.8039 15.5207C14.8221 15.5853 14.8451 15.6472 14.8723 15.7063C15.2131 16.4925 16.2706 16.8587 17.3034 16.5257C18.0273 16.2923 18.6668 15.7283 18.7971 14.9502C18.8281 14.7475 18.7825 14.6692 18.7205 14.6314C18.6549 14.5916 18.5763 14.6054 18.5763 14.6054C18.5763 14.6054 18.5404 14.3632 18.4389 14.143C18.1378 14.3776 17.7502 14.5424 17.4551 14.6259C16.9823 14.7598 16.4716 14.812 15.983 14.7488C15.7849 14.7232 15.6517 14.706 15.5946 14.889C16.2463 15.1246 16.9361 15.0237 16.9361 15.0237C16.9494 15.0224 16.9614 15.0319 16.9628 15.0451ZM15.0826 10.4739C14.7261 10.6539 14.3282 10.9744 14.005 11.3431C13.9936 11.3563 14.0106 11.3744 14.0246 11.3643C14.3038 11.1638 14.6865 10.9775 15.1878 10.8568C15.7495 10.7216 16.2901 10.7783 16.6204 10.853C16.637 10.8568 16.6474 10.8286 16.6327 10.8204C16.4145 10.6995 16.0795 10.6175 15.8419 10.6157C15.8303 10.6156 15.8238 10.6022 15.8307 10.593C15.8717 10.5385 15.928 10.4846 15.9794 10.4457C15.9909 10.4368 15.9839 10.4185 15.9694 10.4193C15.6738 10.4372 14.9987 10.7451 15.0012 10.7339C15.0185 10.6518 15.073 10.5434 15.1013 10.4928C15.108 10.4809 15.0948 10.4677 15.0826 10.4739Z" fill="black"/>
</g>
</g>
<g filter="url(#filter1_d_1_1306)">
<rect x="49" y="23" width="20" height="20" rx="10" transform="rotate(180 49 23)" fill="url(#paint1_linear_1_1306)" shape-rendering="crispEdges"/>
<rect x="48.7928" y="22.7928" width="19.5856" height="19.5856" rx="9.79279" transform="rotate(180 48.7928 22.7928)" stroke="#E3E8EF" stroke-width="0.414414" shape-rendering="crispEdges"/>
<circle cx="39.2165" cy="13.2165" r="5.43919" fill="url(#paint2_linear_1_1306)"/>
<path d="M41.2395 14.877L41.4811 13.3418H39.9696V12.346C39.9696 11.9259 40.1804 11.5162 40.8574 11.5162H41.545V10.2092C41.545 10.2092 40.9212 10.1055 40.3251 10.1055C39.0798 10.1055 38.2666 10.8409 38.2666 12.1718V13.3418H36.8828V14.877H38.2666V18.5885C38.5444 18.631 38.8286 18.6528 39.1181 18.6528C39.4076 18.6528 39.6918 18.631 39.9696 18.5885V14.877H41.2395Z" fill="white"/>
</g>
<g filter="url(#filter2_d_1_1306)">
<rect x="53" y="3" width="20" height="20" rx="10" fill="url(#paint3_linear_1_1306)" shape-rendering="crispEdges"/>
<rect x="53.2072" y="3.20721" width="19.5856" height="19.5856" rx="9.79279" stroke="#E3E8EF" stroke-width="0.414414" shape-rendering="crispEdges"/>
<path d="M67.5829 16.6079C67.5829 17.3478 66.9735 17.9721 66.2235 17.9721H66.0594C65.3563 17.8796 64.8406 17.2553 64.864 16.5616V8.51472C64.8406 7.82102 65.3563 7.21982 66.0594 7.1042C66.8094 7.01171 67.4891 7.54354 67.5829 8.28349V16.6079Z" fill="#F9AB00"/>
<path d="M58.9037 15.2003C59.6864 15.2003 60.3223 15.8207 60.3223 16.5843C60.3223 17.3479 59.6864 17.9683 58.9037 17.9683C58.121 17.9683 57.485 17.3479 57.485 16.5843C57.4606 15.8207 58.121 15.2003 58.9037 15.2003ZM62.646 10.9766C61.8633 11.0243 61.2518 11.6686 61.2518 12.4322V16.1786C61.2518 17.1809 61.7165 17.8013 62.3769 17.9445C63.1596 18.0877 63.8934 17.6104 64.0646 16.8468C64.0891 16.7513 64.0891 16.6559 64.0891 16.5604V12.3845C64.0891 11.6209 63.4532 10.9766 62.6705 10.9766H62.646Z" fill="#E37400"/>
</g>
<defs>
<filter id="filter0_d_1_1306" x="0.855856" y="0.513514" width="28.2883" height="28.2883" filterUnits="userSpaceOnUse" color-interpolation-filters="sRGB">
<feFlood flood-opacity="0" result="BackgroundImageFix"/>
<feColorMatrix in="SourceAlpha" type="matrix" values="0 0 0 0 0 0 0 0 0 0 0 0 0 0 0 0 0 0 127 0" result="hardAlpha"/>
<feOffset dy="1.65766"/>
<feGaussianBlur stdDeviation="2.07207"/>
<feComposite in2="hardAlpha" operator="out"/>
<feColorMatrix type="matrix" values="0 0 0 0 0.12549 0 0 0 0 0.160784 0 0 0 0 0.223529 0 0 0 0.05 0"/>
<feBlend mode="normal" in2="BackgroundImageFix" result="effect1_dropShadow_1_1306"/>
<feBlend mode="normal" in="SourceGraphic" in2="effect1_dropShadow_1_1306" result="shape"/>
</filter>
<filter id="filter1_d_1_1306" x="24.8559" y="0.513514" width="28.2883" height="28.2883" filterUnits="userSpaceOnUse" color-interpolation-filters="sRGB">
<feFlood flood-opacity="0" result="BackgroundImageFix"/>
<feColorMatrix in="SourceAlpha" type="matrix" values="0 0 0 0 0 0 0 0 0 0 0 0 0 0 0 0 0 0 127 0" result="hardAlpha"/>
<feOffset dy="1.65766"/>
<feGaussianBlur stdDeviation="2.07207"/>
<feComposite in2="hardAlpha" operator="out"/>
<feColorMatrix type="matrix" values="0 0 0 0 0.12549 0 0 0 0 0.160784 0 0 0 0 0.223529 0 0 0 0.05 0"/>
<feBlend mode="normal" in2="BackgroundImageFix" result="effect1_dropShadow_1_1306"/>
<feBlend mode="normal" in="SourceGraphic" in2="effect1_dropShadow_1_1306" result="shape"/>
</filter>
<filter id="filter2_d_1_1306" x="48.8559" y="0.513514" width="28.2883" height="28.2883" filterUnits="userSpaceOnUse" color-interpolation-filters="sRGB">
<feFlood flood-opacity="0" result="BackgroundImageFix"/>
<feColorMatrix in="SourceAlpha" type="matrix" values="0 0 0 0 0 0 0 0 0 0 0 0 0 0 0 0 0 0 127 0" result="hardAlpha"/>
<feOffset dy="1.65766"/>
<feGaussianBlur stdDeviation="2.07207"/>
<feComposite in2="hardAlpha" operator="out"/>
<feColorMatrix type="matrix" values="0 0 0 0 0.12549 0 0 0 0 0.160784 0 0 0 0 0.223529 0 0 0 0.05 0"/>
<feBlend mode="normal" in2="BackgroundImageFix" result="effect1_dropShadow_1_1306"/>
<feBlend mode="normal" in="SourceGraphic" in2="effect1_dropShadow_1_1306" result="shape"/>
</filter>
<linearGradient id="paint0_linear_1_1306" x1="15" y1="3" x2="15" y2="23" gradientUnits="userSpaceOnUse">
<stop stop-color="white"/>
<stop offset="1" stop-color="white"/>
</linearGradient>
<linearGradient id="paint1_linear_1_1306" x1="59" y1="23" x2="59" y2="43" gradientUnits="userSpaceOnUse">
<stop stop-color="white"/>
<stop offset="1" stop-color="white"/>
</linearGradient>
<linearGradient id="paint2_linear_1_1306" x1="39.2165" y1="7.77734" x2="39.2165" y2="18.6235" gradientUnits="userSpaceOnUse">
<stop stop-color="#18ACFE"/>
<stop offset="1" stop-color="#0163E0"/>
</linearGradient>
<linearGradient id="paint3_linear_1_1306" x1="63" y1="3" x2="63" y2="23" gradientUnits="userSpaceOnUse">
<stop stop-color="white"/>
<stop offset="1" stop-color="white"/>
</linearGradient>
<clipPath id="clip0_1_1306">
<rect width="12.4324" height="12.4324" fill="white" transform="translate(9 7)"/>
</clipPath>
</defs>
</svg>
