<svg width="24" height="25" viewBox="0 0 24 25" fill="none" xmlns="http://www.w3.org/2000/svg">
<g clip-path="url(#clip0_1_1863)">
<path d="M23.9774 7.55607C23.9211 6.28082 23.7149 5.40418 23.4195 4.64447C23.1147 3.83811 22.6459 3.11618 22.0317 2.51602C21.4315 1.90652 20.7048 1.4329 19.9077 1.13294C19.1437 0.837566 18.2716 0.631276 16.9964 0.575108C15.7116 0.514065 15.3038 0.5 12.0453 0.5C8.78686 0.5 8.37902 0.514065 7.09903 0.570326C5.82383 0.626587 4.94715 0.832971 4.18767 1.12815C3.38107 1.4329 2.65915 1.90174 2.05899 2.51602C1.44949 3.11614 0.976104 3.84284 0.675905 4.63987C0.380535 5.40418 0.174291 6.27613 0.118077 7.55128C0.0570809 8.83605 0.0429688 9.2439 0.0429688 12.5023C0.0429688 15.7608 0.0570809 16.1687 0.113295 17.4486C0.169556 18.7239 0.37594 19.6005 0.671357 20.3602C0.976104 21.1666 1.44949 21.8885 2.05899 22.4887C2.65915 23.0982 3.38586 23.5718 4.18289 23.8718C4.9471 24.1671 5.81905 24.3734 7.09449 24.4296C8.37424 24.486 8.78232 24.4999 12.0408 24.4999C15.2992 24.4999 15.7071 24.486 16.987 24.4296C18.2622 24.3734 19.1389 24.1672 19.8984 23.8718C20.6961 23.5633 21.4205 23.0917 22.0252 22.487C22.63 21.8823 23.1017 21.1579 23.4102 20.3602C23.7054 19.596 23.9118 18.7238 23.968 17.4486C24.0243 16.1687 24.0383 15.7608 24.0383 12.5023C24.0383 9.2439 24.0335 8.836 23.9774 7.55607ZM21.8161 17.3549C21.7644 18.527 21.5676 19.1599 21.4035 19.5819C21.0002 20.6274 20.1704 21.4572 19.1248 21.8605C18.7029 22.0246 18.0654 22.2215 16.8978 22.2729C15.632 22.3294 15.2523 22.3432 12.0501 22.3432C8.84786 22.3432 8.46346 22.3294 7.20213 22.2729C6.03003 22.2215 5.39709 22.0246 4.97514 21.8605C4.45486 21.6682 3.98129 21.3634 3.59684 20.9649C3.19832 20.5758 2.89357 20.107 2.70125 19.5866C2.53716 19.1647 2.34029 18.527 2.28886 17.3596C2.23241 16.0938 2.21853 15.7139 2.21853 12.5117C2.21853 9.30944 2.23241 8.92504 2.28886 7.66395C2.34029 6.49184 2.53716 5.85891 2.70125 5.43695C2.89357 4.91644 3.19832 4.44296 3.60162 4.05841C3.99057 3.6599 4.45941 3.35515 4.97992 3.16307C5.40188 2.99897 6.03959 2.80206 7.20691 2.75044C8.47279 2.69418 8.85264 2.68011 12.0546 2.68011C15.2617 2.68011 15.6413 2.69418 16.9026 2.75044C18.0747 2.80211 18.7076 2.99893 19.1296 3.16302C19.6499 3.35515 20.1235 3.6599 20.5079 4.05841C20.9064 4.4476 21.2112 4.91644 21.4035 5.43695C21.5676 5.85891 21.7644 6.49639 21.8161 7.66395C21.8723 8.92982 21.8864 9.30944 21.8864 12.5117C21.8864 15.7139 21.8724 16.089 21.8161 17.3549Z" fill="#9AA3B2"/>
<path d="M12.0442 6.3393C8.64048 6.3393 5.87891 9.10068 5.87891 12.5046C5.87891 15.9084 8.64048 18.6698 12.0442 18.6698C15.448 18.6698 18.2094 15.9084 18.2094 12.5046C18.2094 9.10068 15.448 6.3393 12.0442 6.3393ZM12.0442 16.5038C9.83602 16.5038 8.04486 14.7129 8.04486 12.5046C8.04486 10.2962 9.83602 8.50535 12.0441 8.50535C14.2525 8.50535 16.0434 10.2962 16.0434 12.5046C16.0434 14.7129 14.2524 16.5038 12.0442 16.5038ZM19.8927 6.0955C19.8927 6.89037 19.2482 7.53484 18.4531 7.53484C17.6583 7.53484 17.0138 6.89037 17.0138 6.0955C17.0138 5.30053 17.6583 4.65625 18.4532 4.65625C19.2482 4.65625 19.8927 5.30049 19.8927 6.0955Z" fill="#9AA3B2"/>
</g>
<defs>
<clipPath id="clip0_1_1863">
<rect width="24" height="24" fill="white" transform="translate(0 0.5)"/>
</clipPath>
</defs>
</svg>
