<svg width="60" height="60" viewBox="0 0 60 60" fill="none" xmlns="http://www.w3.org/2000/svg">
<rect width="60" height="60" rx="30" fill="url(#paint0_linear_1_3561)"/>
<g filter="url(#filter0_d_1_3561)">
<rect x="6.25" y="6.25" width="48" height="48" rx="24" fill="white"/>
<rect x="5.75" y="5.75" width="49" height="49" rx="24.5" stroke="#FFEFCC"/>
<g clip-path="url(#clip0_1_3561)">
<path d="M21.25 27.25C21.25 26.7196 21.4607 26.2109 21.8358 25.8358C22.2109 25.4607 22.7196 25.25 23.25 25.25H37.25C37.7804 25.25 38.2891 25.4607 38.6642 25.8358C39.0393 26.2109 39.25 26.7196 39.25 27.25V36.25C39.25 36.7804 39.0393 37.2891 38.6642 37.6642C38.2891 38.0393 37.7804 38.25 37.25 38.25H23.25C22.7196 38.25 22.2109 38.0393 21.8358 37.6642C21.4607 37.2891 21.25 36.7804 21.25 36.25V27.25Z" stroke="#F6B51E" stroke-width="2" stroke-linecap="round" stroke-linejoin="round"/>
<path d="M26.25 25.25V23.25C26.25 22.7196 26.4607 22.2109 26.8358 21.8358C27.2109 21.4607 27.7196 21.25 28.25 21.25H32.25C32.7804 21.25 33.2891 21.4607 33.6642 21.8358C34.0393 22.2109 34.25 22.7196 34.25 23.25V25.25" stroke="#F6B51E" stroke-width="2" stroke-linecap="round" stroke-linejoin="round"/>
<path d="M30.25 30.25V30.2578" stroke="#F6B51E" stroke-width="2" stroke-linecap="round" stroke-linejoin="round"/>
<path d="M21.25 31.25C24.0416 32.6567 27.124 33.3894 30.25 33.3894C33.376 33.3894 36.4584 32.6567 39.25 31.25" stroke="#F6B51E" stroke-width="2" stroke-linecap="round" stroke-linejoin="round"/>
</g>
</g>
<defs>
<filter id="filter0_d_1_3561" x="4.17587" y="4.71294" width="52.1483" height="52.1483" filterUnits="userSpaceOnUse" color-interpolation-filters="sRGB">
<feFlood flood-opacity="0" result="BackgroundImageFix"/>
<feColorMatrix in="SourceAlpha" type="matrix" values="0 0 0 0 0 0 0 0 0 0 0 0 0 0 0 0 0 0 127 0" result="hardAlpha"/>
<feOffset dy="0.537063"/>
<feGaussianBlur stdDeviation="0.537063"/>
<feComposite in2="hardAlpha" operator="out"/>
<feColorMatrix type="matrix" values="0 0 0 0 0.0392157 0 0 0 0 0.0509804 0 0 0 0 0.0784314 0 0 0 0.03 0"/>
<feBlend mode="normal" in2="BackgroundImageFix" result="effect1_dropShadow_1_3561"/>
<feBlend mode="normal" in="SourceGraphic" in2="effect1_dropShadow_1_3561" result="shape"/>
</filter>
<linearGradient id="paint0_linear_1_3561" x1="30" y1="0" x2="30" y2="60" gradientUnits="userSpaceOnUse">
<stop stop-color="#F6B51E" stop-opacity="0.1"/>
<stop offset="1" stop-color="#F6B51E" stop-opacity="0"/>
</linearGradient>
<clipPath id="clip0_1_3561">
<rect width="24" height="24" fill="white" transform="translate(18.25 18.25)"/>
</clipPath>
</defs>
</svg>
