<svg width="60" height="60" viewBox="0 0 60 60" fill="none" xmlns="http://www.w3.org/2000/svg">
<rect width="60" height="60" rx="30" fill="url(#paint0_linear_1_3489)"/>
<g filter="url(#filter0_d_1_3489)">
<rect x="6.25" y="6.25" width="48" height="48" rx="24" fill="white"/>
<rect x="5.75" y="5.75" width="49" height="49" rx="24.5" stroke="#E0EEFE"/>
<g clip-path="url(#clip0_1_3489)">
<path d="M22.2501 31.25C24.0332 31.4619 25.6931 32.2675 26.9628 33.5372C28.2326 34.807 29.0382 36.4669 29.2501 38.25C30.134 37.7404 30.8734 37.0138 31.3983 36.1389C31.9233 35.264 32.2164 34.2697 32.2501 33.25C33.9292 32.6593 35.3955 31.584 36.4634 30.16C37.5314 28.736 38.1532 27.0273 38.2501 25.25C38.2501 24.4544 37.934 23.6913 37.3714 23.1287C36.8088 22.5661 36.0457 22.25 35.2501 22.25C33.4728 22.3469 31.7641 22.9687 30.3401 24.0367C28.9161 25.1046 27.8408 26.5709 27.2501 28.25C26.2304 28.2837 25.236 28.5768 24.3612 29.1018C23.4863 29.6267 22.7597 30.3661 22.2501 31.25Z" stroke="#1B91F0" stroke-width="1.5" stroke-linecap="round" stroke-linejoin="round"/>
<path d="M25.2495 32.25C24.2087 32.8376 23.3672 33.7226 22.8327 34.7916C22.2982 35.8606 22.0951 37.0648 22.2495 38.25C23.4347 38.4044 24.6389 38.2013 25.7079 37.6668C26.7769 37.1323 27.6619 36.2908 28.2495 35.25" stroke="#1B91F0" stroke-width="1.5" stroke-linecap="round" stroke-linejoin="round"/>
<path d="M32.2501 27.25C32.2501 27.5152 32.3554 27.7696 32.543 27.9571C32.7305 28.1446 32.9849 28.25 33.2501 28.25C33.5153 28.25 33.7697 28.1446 33.9572 27.9571C34.1447 27.7696 34.2501 27.5152 34.2501 27.25C34.2501 26.9848 34.1447 26.7304 33.9572 26.5429C33.7697 26.3554 33.5153 26.25 33.2501 26.25C32.9849 26.25 32.7305 26.3554 32.543 26.5429C32.3554 26.7304 32.2501 26.9848 32.2501 27.25Z" stroke="#1B91F0" stroke-width="1.5" stroke-linecap="round" stroke-linejoin="round"/>
</g>
</g>
<defs>
<filter id="filter0_d_1_3489" x="4.17587" y="4.71294" width="52.1483" height="52.1483" filterUnits="userSpaceOnUse" color-interpolation-filters="sRGB">
<feFlood flood-opacity="0" result="BackgroundImageFix"/>
<feColorMatrix in="SourceAlpha" type="matrix" values="0 0 0 0 0 0 0 0 0 0 0 0 0 0 0 0 0 0 127 0" result="hardAlpha"/>
<feOffset dy="0.537063"/>
<feGaussianBlur stdDeviation="0.537063"/>
<feComposite in2="hardAlpha" operator="out"/>
<feColorMatrix type="matrix" values="0 0 0 0 0.0392157 0 0 0 0 0.0509804 0 0 0 0 0.0784314 0 0 0 0.03 0"/>
<feBlend mode="normal" in2="BackgroundImageFix" result="effect1_dropShadow_1_3489"/>
<feBlend mode="normal" in="SourceGraphic" in2="effect1_dropShadow_1_3489" result="shape"/>
</filter>
<linearGradient id="paint0_linear_1_3489" x1="30" y1="0" x2="30" y2="60" gradientUnits="userSpaceOnUse">
<stop stop-color="#1B91F0" stop-opacity="0.101961"/>
<stop offset="1" stop-color="#1B91F0" stop-opacity="0"/>
</linearGradient>
<clipPath id="clip0_1_3489">
<rect width="24" height="24" fill="white" transform="translate(18.25 18.25)"/>
</clipPath>
</defs>
</svg>
